<ttFont>
<head>
    <!-- Most of this table will be recalculated by the compiler -->
    <tableVersion value="1.0"/>
    <fontRevision value="1.10799"/>
    <checkSumAdjustment value="0x5881e67"/>
    <magicNumber value="0x5f0f3cf5"/>
    <flags value="00000000 00001011"/>
    <unitsPerEm value="1000"/>
    <created value="Sun Jan 10 17:35:12 2016"/>
    <modified value="Sat Jan 23 18:52:32 2016"/>
    <xMin value="-970"/>
    <yMin value="-906"/>
    <xMax value="3238"/>
    <yMax value="2566"/>
    <macStyle value="00000000 00000000"/>
    <lowestRecPPEM value="8"/>
    <fontDirectionHint value="2"/>
    <indexToLocFormat value="0"/>
    <glyphDataFormat value="0"/>
  </head>
          <CharString index="0">
            14 0 45 381 rlineto
            1 11 1 15 0 12 rrcurveto
            49 -19 32 -34 -38 -15 -33 -43 vhcurveto
            0 -11 1 -12 2 -20 rrcurveto
            return
          </CharString>
          <CharString index="1">
            30 -24 25 -29 -30 -23 -24 -30 -30 22 -22 30 31 23 22 29 vhcurveto
            return
          </CharString>
          <CharString index="2">
            -106 -65 -101 -69 -32 -24 29 39 vhcurveto
            0 68 34 88 44 47 12 14 21 9 16 0 rrcurveto
            38 25 -35 -52 hvcurveto
            return
          </CharString>
          <CharString index="3">
            -44 hlineto
            -92 -89 -13 -8 -62 0 -37 0 -24 10 -35 29 -27 22 -12 6 -21 0 rrcurveto
            -102 -91 -100 -113 hvcurveto
            return
          </CharString>
          <CharString index="4">
            -78 51 -59 67 vhcurveto
            33 0 26 11 27 26 48 45 32 75 0 70 0 16 -1 11 -3 17 32 -11 18 -3 26 0 53 0 31 14 37 43 rrcurveto
            -394 -658 47 0 rlineto
            return
          </CharString>
          <CharString index="5">
            -115 -61 -101 -71 -34 -23 28 42 vhcurveto
            0 55 17 59 31 49 20 33 11 10 41 20 17 -18 13 -9 14 -7 21 -10 4 -7 0 -29 rrcurveto
            return
          </CharString>
          <CharString index="6">
            49 28 19 6 44 7 39 6 13 11 0 26 0 23 -15 15 -22 0 -22 0 -31 -41 -24 -24 -19 -18 -11 -8 -28 -16 rrcurveto
            24 vlineto
            0 24 5 27 12 32 7 20 4 15 0 12 rrcurveto
            20 -17 16 -20 -20 -16 -15 -19 vhcurveto
            0 -13 4 -18 7 -21 10 -33 5 -31 0 -27 rrcurveto
            -13 vlineto
            -38 21 -19 16 -32 36 -22 24 -11 8 -16 0 -20 0 -13 -16 0 -21 0 -25 18 -11 49 -10 34 -7 25 -7 38 -23 -41 -25 -16 -6 -46 -9 rrcurveto
            -45 -8 -18 -11 0 -26 0 -21 14 -15 23 0 16 0 10 6 17 19 29 33 2 2 10 10 10 9 7 5 35 22 rrcurveto
            -9 vlineto
            0 -43 -4 -24 -12 -32 -7 -19 -5 -16 0 -12 rrcurveto
            -19 17 -17 19 20 20 19 20 vhcurveto
            0 7 -4 12 -5 14 -13 35 -7 36 0 39 rrcurveto
            0 9 8 -5 rlineto
            20 -13 22 -12 27 -33 25 -31 16 -13 19 0 21 0 15 17 0 22 0 26 -16 10 -44 7 -37 6 -32 10 -27 18 rrcurveto
            return
          </CharString>
          <CharString index="7">
            66 -261 261 -66 -261 -261 -66 261 -261 66 261 vlineto
            return
          </CharString>
          <CharString index="8">
            30 -26 27 -29 -31 -25 -25 -31 -31 24 -24 31 30 26 25 29 vhcurveto
            return
          </CharString>
          <CharString index="9">
            30 -25 26 -30 -32 -24 -24 -32 -30 26 -25 30 30 25 25 30 vhcurveto
            return
          </CharString>
          <CharString index="10">
            30 -25 26 -30 -32 -24 -24 -32 -30 26 -25 30 vhcurveto
            30 25 25 30 hvcurveto
            return
          </CharString>
          <CharString index="11">
            70 33 42 58 0 63 rrcurveto
            54 -35 35 -45 vhcurveto
            return
          </CharString>
          <CharString index="12">
            9 0 13 4 6 0 8 0 6 -7 0 -7 0 -33 -28 -37 -55 -36 rrcurveto
            return
          </CharString>
          <CharString index="13">
            0 63 -432 215 432 215 0 65 -565 -275 0 -10 rlineto
            return
          </CharString>
          <CharString index="14">
            66 -589 -66 vlineto
            return
          </CharString>
          <CharString index="15">
            0 10 -565 275 0 -65 432 -215 -432 -215 0 -63 rlineto
            return
          </CharString>
          <CharString index="16">
            11 68 18 46 36 43 86 102 19 34 0 61 rrcurveto
            97 -85 61 -97 -96 -68 -60 -83 -41 20 -25 28 25 16 18 25 vhcurveto
            0 33 -38 4 0 37 rrcurveto
            32 46 30 48 61 48 -49 -69 vhcurveto
            0 -60 -25 -63 -26 -64 -35 -87 -8 -50 -1 -40 rrcurveto
            return
          </CharString>
          <CharString index="17">
            28 -24 25 -28 -31 -23 -23 -30 -28 20 -25 34 30 22 24 29 vhcurveto
            return
          </CharString>
          <CharString index="18">
            19 vlineto
            -52 6 -14 21 -28 65 rrcurveto
            -246 563 -20 0 -206 -488 rlineto
            -59 -140 -9 -21 -58 -6 rrcurveto
            -19 199 19 vlineto
            -48 -22 10 31 hvcurveto
            0 12 4 17 5 13 rrcurveto
            46 114 262 0 41 -94 rlineto
            12 -28 7 -27 0 -15 0 -9 -6 -11 -8 -4 -12 -7 -7 -2 -36 0 rrcurveto
            -19 vlineto
            return
          </CharString>
          <CharString index="19">
            -231 0 115 275 rlineto
            return
          </CharString>
          <CharString index="20">
            -75 -71 -55 -30 -90 0 -69 0 -65 25 -44 47 -47 51 -25 78 0 110 0 173 89 122 151 0 65 0 52 -29 44 -47 25 -27 15 -29 12 -55 rrcurveto
            23 0 -9 227 -20 0 rlineto
            -6 -21 -17 -12 -19 0 -17 0 -31 12 -21 6 -40 11 -40 4 -39 0 -93 0 -86 -33 -64 -71 -57 -64 -33 -83 0 -100 0 -99 35 -91 61 -60 rrcurveto
            58 -57 87 -32 91 0 118 0 97 44 58 83 rrcurveto
            return
          </CharString>
          <CharString index="21">
            -19 vlineto
            76 -5 12 -9 0 -79 rrcurveto
            -435 vlineto
            0 -78 -10 -13 -78 -5 rrcurveto
            -19 281 vlineto
            101 0 89 24 62 40 89 57 47 94 0 119 0 103 -34 78 -65 56 -68 59 -103 32 -129 0 rrcurveto
            return
          </CharString>
          <CharString index="22">
            33 15 9 38 vhcurveto
            100 0 63 -17 59 -52 63 -55 32 -69 0 -104 0 -113 -34 -79 -70 -47 -60 -40 -55 -12 -103 0 rrcurveto
            -39 -9 12 35 hvcurveto
            return
          </CharString>
          <CharString index="23">
            -28 hlineto
            -45 -106 -43 -26 -143 0 rrcurveto
            -36 hlineto
            -74 -27 5 42 hvcurveto
            243 151 vlineto
            86 0 15 -13 12 -84 rrcurveto
            23 234 -23 hlineto
            -12 -79 -15 -17 -86 0 rrcurveto
            -151 220 hlineto
            32 7 4 28 vhcurveto
            131 hlineto
            116 0 23 -15 15 -90 rrcurveto
            25 0 -4 143 -530 0 0 -19 rlineto
            75 -4 12 -15 0 -74 rrcurveto
            -436 vlineto
            0 -77 -10 -13 -77 -5 rrcurveto
            -19 539 vlineto
            return
          </CharString>
          <CharString index="24">
            -256 -18 hlineto
            79 -6 10 -8 0 -78 rrcurveto
            -157 vlineto
            -33 -56 -28 -77 -157 -106 112 186 vhcurveto
            0 99 24 91 53 53 43 44 55 25 69 0 56 0 52 -19 38 -36 30 -29 16 -26 25 -61 rrcurveto
            23 0 -8 211 -22 0 rlineto
            -6 -19 -18 -14 -21 0 -10 0 -15 3 -19 7 -45 15 -34 8 -54 0 -97 0 -82 -31 -60 -55 -67 -61 -40 -92 0 -110 0 -98 27 -77 56 -59 rrcurveto
            66 -69 102 -38 102 0 103 0 96 25 55 45 rrcurveto
            200 vlineto
            0 65 12 10 58 5 rrcurveto
            return
          </CharString>
          <CharString index="25">
            19 vlineto
            -75 6 -14 15 0 71 rrcurveto
            437 vlineto
            0 77 15 12 74 6 rrcurveto
            19 -280 -19 vlineto
            76 -6 13 -10 0 -79 rrcurveto
            -189 -303 189 vlineto
            0 78 16 11 73 6 rrcurveto
            19 -280 -19 vlineto
            77 -6 12 -11 0 -78 rrcurveto
            -426 vlineto
            0 -86 -11 -12 -78 -5 rrcurveto
            -19 279 vlineto
            -1 19 rlineto
            -74 4 -13 17 0 73 rrcurveto
            202 303 -191 vlineto
            0 -84 -10 -16 -78 -5 rrcurveto
            -19 vlineto
            return
          </CharString>
          <CharString index="26">
            19 vlineto
            -82 3 -16 15 0 75 rrcurveto
            439 vlineto
            0 76 14 12 84 4 rrcurveto
            19 -297 -19 vlineto
            85 -5 12 -8 0 -79 rrcurveto
            -439 vlineto
            0 -78 -13 -12 -84 -3 rrcurveto
            -19 vlineto
            return
          </CharString>
          <CharString index="27">
            -287 -19 hlineto
            81 -7 12 -5 0 -81 rrcurveto
            -456 vlineto
            -50 -6 -20 -31 vhcurveto
            -20 0 -1 19 -10 25 -11 28 -15 14 -23 0 rrcurveto
            -27 -22 -26 -26 -47 41 -25 60 106 61 62 137 hvcurveto
            364 vlineto
            0 77 11 11 81 6 rrcurveto
            return
          </CharString>
          <CharString index="28">
            19 vlineto
            -46 0 -27 18 -83 91 rrcurveto
            -234 256 186 178 rlineto
            69 66 19 10 68 5 rrcurveto
            19 -259 -19 vlineto
            25 -1 rlineto
            33 -1 8 -10 0 -20 0 -25 -30 -29 -48 -45 rrcurveto
            -178 -164 0 200 rlineto
            0 77 7 12 83 6 rrcurveto
            19 -282 -19 vlineto
            79 -5 11 -15 0 -74 rrcurveto
            -424 vlineto
            0 -87 -12 -15 -79 -4 rrcurveto
            -19 282 19 vlineto
            -73 6 -16 9 0 77 rrcurveto
            0 185 26 21 100 -103 rlineto
            79 -82 58 -61 0 -27 0 -14 -13 -9 -29 -1 rrcurveto
            -27 -1 0 -19 rlineto
            return
          </CharString>
          <CharString index="29">
            -26 hlineto
            -16 -35 -13 -22 -13 -17 -34 -43 -54 -18 -81 0 rrcurveto
            -70 hlineto
            -73 -17 7 38 hvcurveto
            464 vlineto
            0 77 12 13 82 5 rrcurveto
            19 -283 -19 vlineto
            78 -6 9 -14 0 -77 rrcurveto
            -431 vlineto
            0 -76 -13 -16 -74 -4 rrcurveto
            -19 538 vlineto
            return
          </CharString>
          <CharString index="30">
            19 vlineto
            -73 5 -15 17 0 71 rrcurveto
            438 vlineto
            0 75 15 17 72 1 rrcurveto
            19 -199 vlineto
            -221 -502 -231 502 -198 0 0 -19 rlineto
            82 -5 13 -13 0 -76 rrcurveto
            -398 vlineto
            0 -112 -14 -14 -83 -6 rrcurveto
            -19 234 19 vlineto
            -77 4 -16 18 0 110 rrcurveto
            0 398 252 -549 14 0 255 572 0 -449 rlineto
            0 -83 -11 -16 -79 -5 rrcurveto
            -19 vlineto
            return
          </CharString>
          <CharString index="31">
            -237 -19 hlineto
            44 -5 18 -2 17 -19 15 -17 4 -30 0 -51 rrcurveto
            0 -340 -386 483 -170 0 0 -19 rlineto
            49 0 15 -12 33 -41 rrcurveto
            -440 vlineto
            0 -107 -15 -15 -82 -9 rrcurveto
            -19 234 19 vlineto
            -77 11 -16 17 0 103 rrcurveto
            0 388 rlineto
            return
          </CharString>
          <CharString index="32">
            441 -549 18 0 0 518 rlineto
            0 79 10 22 19 17 13 11 15 3 38 4 rrcurveto
            return
          </CharString>
          <CharString index="33">
            198 -131 147 -196 -195 -132 -139 -203 -208 133 -140 194 192 135 139 206 vhcurveto
            return
          </CharString>
          <CharString index="34">
            0 -120 -28 -94 -55 -53 -35 -33 -44 -15 -50 0 -46 0 -44 14 -34 31 -61 56 -29 90 0 119 0 95 26 97 43 49 39 45 50 22 54 0 rrcurveto
            47 0 40 -17 36 -30 57 -48 34 -94 0 -114 rrcurveto
            return
          </CharString>
          <CharString index="35">
            -19 vlineto
            74 -6 10 -12 0 -74 rrcurveto
            -429 vlineto
            0 -86 -6 -11 -78 -6 rrcurveto
            -19 280 19 vlineto
            -81 4 -13 13 0 76 rrcurveto
            179 vlineto
            27 -2 16 -1 26 0 107 0 49 9 58 52 37 33 20 45 0 53 0 50 -17 41 -33 28 -45 38 -72 25 -100 0 rrcurveto
            return
          </CharString>
          <CharString index="36">
            27 6 9 29 136 60 -40 -110 -90 -60 -57 -110 vhcurveto
            -20 0 -18 1 -23 2 rrcurveto
            return
          </CharString>
          <CharString index="37">
            19 vlineto
            -44 4 -21 6 -29 37 rrcurveto
            -200 253 rlineto
            125 19 56 58 0 87 0 44 -16 49 -33 27 -43 35 -71 24 -95 0 rrcurveto
            -272 -19 hlineto
            77 -6 8 -12 0 -74 rrcurveto
            -427 vlineto
            0 -88 -10 -11 -75 -6 rrcurveto
            -19 276 19 vlineto
            -77 5 -12 12 0 76 rrcurveto
            0 194 56 2 238 -308 rlineto
            return
          </CharString>
          <CharString index="38">
            35 17 7 34 124 59 -44 -90 vhcurveto
            0 -50 -21 -44 -36 -20 -46 -25 -35 -7 -96 -2 rrcurveto
            return
          </CharString>
          <CharString index="39">
            -22 213 -21 0 rlineto
            return
          </CharString>
          <CharString index="40">
            -4 -22 -11 -12 -17 0 -10 0 -16 4 -18 8 rrcurveto
            return
          </CharString>
          <CharString index="41">
            -38 16 -26 6 -41 0 -99 0 -75 -66 0 -109 0 -62 32 -62 90 -48 64 -34 69 -44 35 -38 19 -21 10 -23 0 -35 0 -66 -49 -46 -70 0 rrcurveto
            -95 0 -65 56 -46 121 rrcurveto
            -22 0 29 -212 22 0 rlineto
            return
          </CharString>
          <CharString index="42">
            21 13 12 15 vhcurveto
            11 0 17 -3 19 -8 rrcurveto
            return
          </CharString>
          <CharString index="43">
            37 -16 39 -7 42 0 116 0 88 75 0 112 0 76 -49 58 -106 62 -105 61 -74 42 0 68 0 55 39 40 62 0 60 0 50 -33 35 -45 rrcurveto
            18 -24 11 -26 12 -44 rrcurveto
            return
          </CharString>
          <CharString index="44">
            -7 170 -562 0 -7 -170 24 0 rlineto
            20 110 27 18 106 0 rrcurveto
            60 -497 hlineto
            0 -88 -11 -11 -83 -5 rrcurveto
            -19 292 19 vlineto
            -82 4 -14 12 0 76 rrcurveto
            509 59 vlineto
            106 0 26 -18 22 -110 rrcurveto
            return
          </CharString>
          <CharString index="45">
            -232 -19 hlineto
            81 -5 13 -22 0 -103 rrcurveto
            -263 vlineto
            0 -81 -4 -40 -33 -40 -32 -37 -56 -22 -64 0 -57 0 -42 17 -29 28 -40 39 -4 45 0 78 rrcurveto
            312 vlineto
            0 75 11 12 80 7 rrcurveto
            19 -283 -19 vlineto
            79 -6 11 -11 0 -67 rrcurveto
            -310 vlineto
            0 -106 26 -70 55 -41 41 -31 56 -15 73 0 92 0 68 25 42 48 45 51 9 54 0 97 rrcurveto
            255 vlineto
            0 95 10 24 84 8 rrcurveto
            return
          </CharString>
          <CharString index="46">
            -197 -19 hlineto
            51 -1 19 -13 0 -27 0 -21 -6 -25 -11 -31 rrcurveto
            -126 -339 -143 364 rlineto
            -9 24 -8 23 0 11 0 21 27 13 50 1 rrcurveto
            19 -265 -19 vlineto
            57 -1 12 -7 33 -88 rrcurveto
            28 -75 -104 -283 -144 376 rlineto
            -7 19 -4 16 0 12 0 21 13 9 51 1 rrcurveto
            19 -244 -19 vlineto
            51 -1 20 -24 33 -95 59 -168 72 -186 61 -180 rrcurveto
            15 0 154 423 rlineto
            52 -133 57 -148 51 -142 rrcurveto
            15 hlineto
            85 261 10 29 109 294 19 52 11 8 53 10 rrcurveto
            return
          </CharString>
          <CharString index="47">
            19 vlineto
            -53 6 -19 12 -39 56 rrcurveto
            -192 274 143 177 rlineto
            63 78 25 17 64 4 rrcurveto
            19 -237 -19 vlineto
            54 -2 14 -7 0 -23 0 -15 -10 -15 -30 -37 rrcurveto
            -112 -140 -44 64 rlineto
            -53 78 -30 38 0 29 0 23 18 5 28 1 rrcurveto
            29 1 0 19 -301 0 0 -19 rlineto
            66 -7 21 -12 96 -141 rrcurveto
            106 -155 -156 -195 rlineto
            -77 -97 -16 -12 -52 -5 rrcurveto
            -19 232 19 vlineto
            -58 4 -18 9 0 19 0 15 16 28 37 46 rrcurveto
            119 149 95 -141 rlineto
            34 -51 17 -31 0 -16 0 -18 -18 -9 -32 -2 rrcurveto
            -26 -2 0 -19 rlineto
            return
          </CharString>
          <CharString index="48">
            -218 -19 hlineto
            52 -1 15 -8 1 -22 0 -11 -4 -16 -10 -15 rrcurveto
            -145 -222 -146 221 rlineto
            -11 16 -7 18 0 13 0 16 15 9 32 1 rrcurveto
            24 1 0 19 -279 0 0 -19 rlineto
            48 -2 22 -20 92 -135 rrcurveto
            131 -192 0 -171 rlineto
            0 -89 -12 -9 -89 -6 rrcurveto
            -19 306 19 vlineto
            -84 4 -19 10 0 78 rrcurveto
            0 192 148 228 rlineto
            56 86 23 21 59 5 rrcurveto
            return
          </CharString>
          <CharString index="49">
            -23 hlineto
            -18 -59 -9 -28 -33 -23 -25 -18 -36 -10 -56 0 rrcurveto
            -252 0 432 609 0 15 -525 0 -21 -171 26 0 rlineto
            10 55 6 17 25 26 24 24 39 11 71 0 rrcurveto
            214 0 -437 -609 0 -15 563 0 rlineto
            return
          </CharString>
          <CharString index="50">
            50 -500 -50 vlineto
            return
          </CharString>
          <CharString index="51">
            -145 148 rlineto
            -17 18 -11 5 -15 0 -22 0 -14 -11 0 -21 0 -16 11 -15 19 -12 rrcurveto
            154 -96 rlineto
            return
          </CharString>
          <CharString index="52">
            27 -23 23 -27 -27 -22 -22 -27 -28 21 -22 27 28 23 22 27 vhcurveto
            return
          </CharString>
          <CharString index="53">
            54 -311 -54 vlineto
            return
          </CharString>
          <CharString index="54">
            -35 0 -41 -99 7 -5 rlineto
            8 3 8 1 12 0 rrcurveto
            38 15 -10 -26 -27 -21 -17 -34 hvcurveto
            -21 0 -17 3 -27 9 rrcurveto
            -14 -31 rlineto
            29 -12 24 -4 31 0 rrcurveto
            77 48 32 52 44 -32 25 -54 hvcurveto
            -10 0 -6 -1 -10 -2 rrcurveto
            return
          </CharString>
          <CharString index="55">
            -125 167 -62 0 -124 -167 34 0 121 103 122 -103 rlineto
            return
          </CharString>
          <CharString index="56">
            -17 -37 -13 -13 -23 0 -15 0 -19 5 -19 10 rrcurveto
            -24 12 rlineto
            return
          </CharString>
          <CharString index="57">
            -24 12 -24 6 -22 0 rrcurveto
            return
          </CharString>
          <CharString index="58">
            -50 0 -36 -36 -15 -65 rrcurveto
            29 hlineto
            return
          </CharString>
          <CharString index="59">
            11 31 17 15 23 0 12 0 14 -4 15 -7 rrcurveto
            23 -11 rlineto
            return
          </CharString>
          <CharString index="60">
            41 -20 15 -4 25 0 55 0 29 30 21 76 rrcurveto
            return
          </CharString>
          <CharString index="61">
            54 -45 46 -53 -56 -45 -44 -55 -56 43 -44 55 56 45 44 55 vhcurveto
            return
          </CharString>
          <CharString index="62">
            -37 -29 -29 -38 -35 -29 29 37 35 30 30 34 37 30 -29 -36 vhcurveto
            return
          </CharString>
          <CharString index="63">
            -29 -71 -28 -26 -54 0 -63 0 -36 34 -13 63 rrcurveto
            -29 hlineto
            -97 45 -60 94 vhcurveto
            82 0 48 51 12 106 rrcurveto
            return
          </CharString>
          <CharString index="64">
            28 -19 22 -31 -30 -19 -23 -27 -27 22 -22 27 27 23 20 29 vhcurveto
            return
          </CharString>
          <CharString index="65">
            -35 0 -121 -103 -120 103 -35 0 123 -167 64 0 rlineto
            return
          </CharString>
          <CharString index="66">
            40 0 154 96 rlineto
            21 13 8 14 0 18 0 19 -14 11 -20 0 -13 0 -10 -3 -20 -20 rrcurveto
            return
          </CharString>
          <CharString index="67">
            -30 -10 -82 -66 0 -71 rrcurveto
            -83 58 -13 23 25 33 15 43 40 -36 10 -26 vhcurveto
            -11 0 -7 -4 -6 0 -7 0 -7 5 0 9 0 19 16 45 66 42 rrcurveto
            return
          </CharString>
          <CharString index="68">
            30 10 82 66 0 71 rrcurveto
            83 -58 13 -23 -25 -33 -15 -43 -40 36 -10 26 vhcurveto
            11 0 7 4 6 0 7 0 7 -5 0 -9 0 -19 -16 -45 -66 -42 rrcurveto
            return
          </CharString>
          <CharString index="69">
            -66 42 -16 45 0 19 0 9 7 5 7 0 6 0 7 -4 11 0 rrcurveto
            26 36 10 40 43 -33 15 -25 -23 -58 -13 -83 hvcurveto
            0 -71 82 -66 30 -10 rrcurveto
            return
          </CharString>
          <CharString index="70">
            -37 30 vlineto
            34 27 -26 -34 -34 -27 -27 -34 hvcurveto
            -30 -37 30 hlineto
            54 44 44 54 54 -44 43 -54 hvcurveto
            return
          </CharString>
          <CharString index="71">
            37 -30 vlineto
            -34 -27 27 34 34 27 26 34 hvcurveto
            30 37 -30 hlineto
            -54 -44 -43 -54 -54 44 -44 54 hvcurveto
            return
          </CharString>
          <CharString index="72">
            40 -95 147 -40 -147 -95 -40 vlineto
            return
          </CharString>
          <CharString index="73">
            40 -230 -40 95 -147 40 147 vlineto
            return
          </CharString>
          <CharString index="74">
            -29 -27 -21 -9 -21 0 -22 0 -16 11 0 28 0 23 13 22 31 25 rrcurveto
            -46 hlineto
            -38 -27 -16 -28 0 -36 0 -47 31 -27 43 0 46 0 29 22 36 54 rrcurveto
            return
          </CharString>
          <CharString index="75">
            54 -45 45 -53 -56 -45 -44 -55 -56 43 -44 55 56 45 45 55 vhcurveto
            return
          </CharString>
          <CharString index="76">
            -17 -37 -13 -14 -23 0 -20 0 -14 6 -43 22 rrcurveto
            return
          </CharString>
          <CharString index="77">
            11 31 17 15 23 0 18 0 8 -4 38 -18 rrcurveto
            return
          </CharString>
          <CharString index="78">
            40 0 154 96 rlineto
            19 12 11 15 0 16 0 21 -14 11 -22 0 -15 0 -11 -5 -17 -18 rrcurveto
            return
          </CharString>
          <CharString index="79">
            -146 148 rlineto
            -20 20 -10 3 -13 0 -20 0 -14 -11 0 -19 0 -18 8 -14 21 -13 rrcurveto
            154 -96 rlineto
            return
          </CharString>
          <CharString index="80">
            -12 106 -48 51 -82 0 rrcurveto
            -94 -45 -60 -97 hvcurveto
            29 hlineto
            13 63 36 34 63 0 54 0 28 -26 29 -71 rrcurveto
            return
          </CharString>
          <CharString index="81">
            27 -23 22 -27 -27 -22 -22 -27 -28 21 -22 27 28 23 22 28 vhcurveto
            return
          </CharString>
          <CharString index="82">
            -133 106 -18 -8 rlineto
            29 -29 21 -18 0 -9 rrcurveto
            -13 -21 -2 -28 vhcurveto
            -178 hlineto
            -33 -16 3 12 hvcurveto
            0 7 17 22 32 27 rrcurveto
            -18 8 -132 -106 133 -106 18 8 rlineto
            -29 29 -21 18 0 9 rrcurveto
            10 16 5 34 vhcurveto
            177 hlineto
            33 16 -3 -12 hvcurveto
            0 -7 -17 -22 -32 -27 rrcurveto
            18 -8 rlineto
            return
          </CharString>
          <CharString index="83">
            14 -10 16 -15 vhcurveto
            -4 0 -5 -2 -6 -3 -20 -12 -17 -35 -51 -28 0 49 21 44 0 22 rrcurveto
            14 -14 13 -12 -14 -13 -13 -14 vhcurveto
            0 -22 20 -44 0 -50 -39 21 -30 42 -21 13 -6 3 -5 2 -4 0 -15 0 -10 -16 0 -14 0 -9 5 -7 8 -5 20 -12 54 -6 36 -22 rrcurveto
            -36 -21 -52 -6 -19 -11 -10 -5 -4 -13 0 -9 0 -11 9 -11 17 0 5 0 7 2 6 4 16 9 32 43 36 20 0 -48 -20 -43 0 -22 rrcurveto
            -12 13 -15 14 12 14 15 12 vhcurveto
            0 22 -21 43 0 48 54 -30 17 -48 28 0 18 0 9 13 0 13 0 8 -4 10 -11 5 -17 11 -44 2 -45 25 51 29 39 0 16 10 rrcurveto
            12 6 5 7 0 9 rrcurveto
            return
          </CharString>
          <CharString index="84">
            54 -286 vlineto
            -33 -16 3 12 hvcurveto
            0 7 17 22 32 27 rrcurveto
            -18 8 -132 -106 133 -106 18 8 rlineto
            -29 29 -21 18 0 9 rrcurveto
            13 21 2 28 vhcurveto
            return
          </CharString>
          <CharString index="85">
            25 vlineto
            -41 0 -18 22 -51 121 rrcurveto
            -222 522 -28 0 -221 -545 rlineto
            -38 -94 -15 -18 -46 -8 rrcurveto
            -25 202 25 vlineto
            -59 4 -22 11 0 26 0 24 19 42 12 31 rrcurveto
            13 34 225 0 rlineto
            34 -79 12 -35 0 -22 0 -22 -13 -8 -33 -3 rrcurveto
            -32 -3 0 -25 rlineto
            return
          </CharString>
          <CharString index="86">
            117 24 42 51 0 76 rrcurveto
            103 -91 57 -161 vhcurveto
            -317 -25 hlineto
            68 -5 20 -17 0 -59 rrcurveto
            -467 vlineto
            0 -56 -15 -14 -73 -8 rrcurveto
            -25 329 vlineto
            178 96 81 107 hvcurveto
            0 95 -83 67 -110 14 rrcurveto
            return
          </CharString>
          <CharString index="87">
            39 17 15 40 68 31 -49 -88 -98 -31 -38 -125 vhcurveto
            return
          </CharString>
          <CharString index="88">
            26 hlineto
            106 51 -53 -102 -101 -42 -55 -78 -44 -19 18 48 hvcurveto
            return
          </CharString>
          <CharString index="89">
            -15 -36 -10 -10 -19 0 -10 0 -13 4 -23 10 rrcurveto
            return
          </CharString>
          <CharString index="90">
            -28 hlineto
            -30 -65 -18 -30 -34 -28 -47 -39 -57 -15 -78 0 rrcurveto
            -65 -18 13 43 hvcurveto
            242 vlineto
            109 0 43 -36 10 -119 rrcurveto
            26 338 -26 hlineto
            -12 -116 -44 -32 -106 -1 rrcurveto
            225 vlineto
            38 13 16 52 vhcurveto
            163 0 51 -33 23 -134 rrcurveto
            25 201 -577 -25 hlineto
            69 -4 19 -16 0 -51 rrcurveto
            -479 vlineto
            0 -52 -14 -16 -74 -8 rrcurveto
            -25 585 vlineto
            return
          </CharString>
          <CharString index="91">
            25 vlineto
            -72 9 -16 11 0 53 rrcurveto
            479 vlineto
            0 54 20 15 68 5 rrcurveto
            25 -339 -25 vlineto
            70 -5 19 -13 0 -56 rrcurveto
            -204 -241 204 vlineto
            0 56 19 13 70 5 rrcurveto
            25 -336 -25 vlineto
            67 -6 18 -13 0 -55 rrcurveto
            -479 vlineto
            0 -53 -15 -11 -70 -9 rrcurveto
            -25 336 25 vlineto
            -73 8 -16 12 0 53 rrcurveto
            228 241 -228 vlineto
            0 -51 -16 -14 -73 -8 rrcurveto
            -25 vlineto
            return
          </CharString>
          <CharString index="92">
            25 vlineto
            -76 5 -19 11 0 65 rrcurveto
            470 vlineto
            0 56 21 16 74 3 rrcurveto
            25 -350 -25 vlineto
            72 -5 21 -14 0 -56 rrcurveto
            -470 vlineto
            0 -62 -18 -12 -75 -7 rrcurveto
            -25 vlineto
            return
          </CharString>
          <CharString index="93">
            25 vlineto
            -25 1 -12 5 -12 15 rrcurveto
            -305 378 rlineto
            186 198 37 17 99 12 rrcurveto
            25 -289 -25 vlineto
            35 -3 rlineto
            36 -3 12 -8 0 -20 0 -16 -9 -11 -31 -31 rrcurveto
            -212 -215 0 223 rlineto
            0 61 14 18 74 5 rrcurveto
            25 -337 -25 vlineto
            69 -4 18 -12 0 -62 rrcurveto
            -472 vlineto
            0 -57 -13 -12 -74 -7 rrcurveto
            -25 336 25 vlineto
            -72 9 -15 12 0 49 rrcurveto
            0 196 27 25 181 -225 rlineto
            19 -24 6 -10 0 -11 0 -13 -12 -6 -65 -2 rrcurveto
            -25 vlineto
            return
          </CharString>
          <CharString index="94">
            25 vlineto
            -80 7 -8 21 0 73 rrcurveto
            428 vlineto
            0 75 15 17 73 5 rrcurveto
            25 -252 vlineto
            -201 -472 -199 472 -253 0 0 -25 rlineto
            73 -6 16 -14 0 -54 rrcurveto
            -469 vlineto
            0 -65 -13 -10 -78 -8 rrcurveto
            -25 234 25 vlineto
            -82 6 -19 22 0 76 rrcurveto
            0 465 252 -594 27 0 252 605 0 -496 rlineto
            0 -59 -14 -18 -75 -7 rrcurveto
            -25 vlineto
            return
          </CharString>
          <CharString index="95">
            -214 -25 hlineto
            74 -7 18 -19 0 -80 rrcurveto
            0 -299 -349 430 -211 0 0 -25 rlineto
            20 0 23 -14 42 -58 rrcurveto
            -470 vlineto
            0 -61 -15 -14 -73 -9 rrcurveto
            -25 226 25 vlineto
            -77 9 -17 20 0 77 rrcurveto
            0 396 rlineto
            return
          </CharString>
          <CharString index="96">
            447 -545 28 0 0 586 rlineto
            0 63 13 10 65 10 rrcurveto
            return
          </CharString>
          <CharString index="97">
            207 -148 149 -201 -208 -151 -144 -213 -207 146 -146 207 207 148 146 208 vhcurveto
            return
          </CharString>
          <CharString index="98">
            -206 -61 -108 -115 -114 -64 105 211 210 63 118 110 117 64 -117 -213 vhcurveto
            return
          </CharString>
          <CharString index="99">
            -25 vlineto
            70 -6 14 -14 0 -78 rrcurveto
            -427 vlineto
            0 -51 -6 -28 -33 -13 -11 -5 -15 -2 -19 -2 rrcurveto
            -25 333 25 vlineto
            -79 10 -8 9 0 67 rrcurveto
            192 vlineto
            132 1 34 3 43 16 83 31 46 61 0 80 rrcurveto
            122 -102 59 -167 vhcurveto
            return
          </CharString>
          <CharString index="100">
            23 17 12 33 83 33 -46 -111 vhcurveto
            0 -111 -41 -34 -125 -1 rrcurveto
            return
          </CharString>
          <CharString index="101">
            -2 201 -600 0 -3 -201 29 0 rlineto
            17 119 52 46 124 4 rrcurveto
            -527 vlineto
            0 -74 -11 -11 -86 -7 rrcurveto
            -25 357 25 vlineto
            -87 6 -11 10 0 76 rrcurveto
            527 vlineto
            123 -4 52 -46 17 -119 rrcurveto
            return
          </CharString>
          <CharString index="102">
            25 vlineto
            -34 1 -16 12 -47 73 rrcurveto
            -182 283 80 111 rlineto
            87 121 26 18 75 7 rrcurveto
            25 -250 -25 vlineto
            21 -2 rlineto
            38 -4 13 -7 0 -24 0 -22 -11 -19 -47 -65 -20 -27 -18 -25 -18 -25 rrcurveto
            -97 150 rlineto
            -13 20 -2 5 0 12 0 21 12 8 36 2 rrcurveto
            31 2 0 25 -346 0 0 -25 rlineto
            36 -3 13 -10 31 -45 rrcurveto
            198 -291 -175 -221 rlineto
            -30 -37 -24 -13 -50 -6 rrcurveto
            -25 250 25 vlineto
            -61 6 -20 10 0 26 0 21 19 31 75 101 rrcurveto
            38 51 101 -162 rlineto
            12 -19 9 -23 0 -12 0 -17 -17 -9 -35 -2 rrcurveto
            -28 -2 0 -25 rlineto
            return
          </CharString>
          <CharString index="103">
            24 vlineto
            -35 5 -13 13 0 43 rrcurveto
            376 -193 -24 vlineto
            44 -9 10 -10 0 -45 rrcurveto
            -285 vlineto
            0 -46 -7 -7 -46 -11 rrcurveto
            -24 vlineto
            return
          </CharString>
          <CharString index="104">
            -202 -24 hlineto
            51 -4 12 -12 0 -43 rrcurveto
            -474 vlineto
            -53 -14 -23 -34 -19 -13 7 10 vhcurveto
            0 5 3 7 6 10 10 15 4 12 0 10 rrcurveto
            30 -26 24 -33 -37 -25 -25 -36 -59 58 -41 82 vhcurveto
            69 0 53 27 28 49 19 32 8 38 0 59 rrcurveto
            return
          </CharString>
          <CharString index="105">
            142 -96 102 -126 -132 -97 -99 -146 -142 100 -100 125 129 97 102 141 vhcurveto
            return
          </CharString>
          <CharString index="106">
            -149 -20 -52 -58 -58 -21 56 145 171 18 53 61 59 19 -53 -171 vhcurveto
            return
          </CharString>
          <CharString index="107">
            16 -16 vlineto
            -42 0 -25 21 -7 49 rrcurveto
            -78 581 -18 0 -356 -577 rlineto
            -36 -58 -37 -12 -35 -4 rrcurveto
            -16 218 16 -29 vlineto
            -26 0 -16 11 -1 18 0 7 3 11 7 8 rrcurveto
            84 140 198 0 13 -113 rlineto
            1 -7 1 -8 0 -6 rrcurveto
            -40 -16 -21 -56 vhcurveto
            -16 -16 hlineto
            return
          </CharString>
          <CharString index="108">
            -170 0 139 227 6 0 rlineto
            return
          </CharString>
          <CharString index="109">
            -5 -16 19 0 rlineto
            59 19 -16 -26 hvcurveto
            0 -6 -1 -10 -1 -5 rrcurveto
            -123 -495 rlineto
            -8 -34 -19 -29 -76 0 rrcurveto
            -20 0 -4 -16 324 0 rlineto
            207 82 94 99 hvcurveto
            0 85 -67 42 -60 11 rrcurveto
            -3 4 rlineto
            20 5 29 8 25 13 48 24 43 45 0 78 rrcurveto
            136 -152 9 -84 vhcurveto
            return
          </CharString>
          <CharString index="110">
            13 2 15 1 15 0 rrcurveto
            54 65 -21 -77 -97 -56 -66 -112 hvcurveto
            -15 0 -18 2 -20 4 rrcurveto
            return
          </CharString>
          <CharString index="111">
            15 4 20 0 16 0 rrcurveto
            78 64 -35 -73 -130 -96 -42 -94 hvcurveto
            -26 0 -20 2 -25 7 rrcurveto
            return
          </CharString>
          <CharString index="112">
            -534 0 -4 -16 19 0 rlineto
            59 16 -11 -24 hvcurveto
            0 -7 -1 -11 -4 -18 rrcurveto
            -120 -488 rlineto
            -8 -34 -23 -28 -73 0 rrcurveto
            -19 0 -4 -16 571 0 66 198 -16 0 rlineto
            -43 -113 -56 -47 -158 0 rrcurveto
            -67 hlineto
            -47 -16 11 16 hvcurveto
            0 3 1 3 1 4 rrcurveto
            66 258 90 0 rlineto
            31 41 -4 -47 hvcurveto
            0 -17 -5 -30 -1 -13 rrcurveto
            17 0 58 242 -16 0 rlineto
            -22 -82 -44 -13 -60 0 rrcurveto
            -80 0 60 248 160 0 rlineto
            51 0 55 -13 3 -74 0 -11 -1 -11 -1 -13 rrcurveto
            16 hlineto
            return
          </CharString>
          <CharString index="113">
            -330 0 -4 -16 20 0 rlineto
            57 19 -15 -24 hvcurveto
            0 -7 -2 -7 -2 -10 rrcurveto
            -53 -217 -278 0 52 217 rlineto
            8 35 18 28 79 0 rrcurveto
            18 0 4 16 -330 0 -4 -16 20 0 rlineto
            62 16 -18 -21 hvcurveto
            0 -7 -2 -11 -2 -6 rrcurveto
            -123 -496 rlineto
            -8 -34 -23 -28 -75 0 rrcurveto
            -18 0 -4 -16 330 0 4 16 -20 0 rlineto
            -59 -18 14 24 hvcurveto
            0 8 2 10 2 6 rrcurveto
            61 242 280 0 -61 -242 rlineto
            -9 -37 -24 -25 -72 0 rrcurveto
            -18 0 -4 -16 329 0 4 16 -19 0 rlineto
            -59 -19 13 21 hvcurveto
            0 10 2 9 2 9 rrcurveto
            123 496 rlineto
            9 35 21 28 76 0 rrcurveto
            18 hlineto
            return
          </CharString>
          <CharString index="114">
            -328 0 -4 -16 18 0 rlineto
            60 17 -16 -22 hvcurveto
            0 -7 -2 -9 -2 -8 rrcurveto
            -123 -497 rlineto
            -8 -34 -21 -28 -76 0 rrcurveto
            -19 0 -4 -16 328 0 4 16 -17 0 rlineto
            -59 -19 12 21 hvcurveto
            0 10 1 11 2 8 rrcurveto
            123 497 rlineto
            9 36 21 26 76 0 rrcurveto
            19 hlineto
            return
          </CharString>
          <CharString index="115">
            -216 0 -4 -16 rlineto
            42 0 8 -7 1 -14 0 -13 -8 -8 -10 -8 rrcurveto
            -282 -221 -5 0 53 209 rlineto
            9 35 13 27 75 0 rrcurveto
            11 0 4 16 -312 0 -4 -16 18 0 rlineto
            60 16 -16 -22 hvcurveto
            0 -21 -3 -1 -7 -27 rrcurveto
            -117 -472 rlineto
            -7 -27 -17 -35 -60 0 rrcurveto
            -18 0 -4 -16 304 0 4 16 -17 0 rlineto
            -59 -19 16 24 hvcurveto
            0 7 1 7 2 8 rrcurveto
            62 243 4 0 156 -237 rlineto
            8 -13 8 -6 0 -16 rrcurveto
            -28 -19 -5 -28 vhcurveto
            -11 0 -4 -16 287 0 4 16 rlineto
            -65 0 -33 36 -29 43 rrcurveto
            -187 278 271 211 rlineto
            42 33 27 20 51 0 rrcurveto
            return
          </CharString>
          <CharString index="116">
            -215 0 -333 -493 -4 0 -89 493 -213 0 -4 -16 19 0 rlineto
            62 15 -15 -20 hvcurveto
            0 -9 -1 -12 -4 -17 rrcurveto
            -119 -475 rlineto
            -10 -40 -19 -33 -79 0 rrcurveto
            -19 0 -4 -16 267 0 4 16 -20 0 rlineto
            -59 -17 12 21 hvcurveto
            0 12 2 15 3 13 rrcurveto
            109 428 3 0 94 -517 25 0 345 517 6 0 -112 -439 rlineto
            -8 -32 -18 -30 -79 0 rrcurveto
            -17 0 -4 -16 330 0 4 16 -19 0 rlineto
            -58 -19 15 19 hvcurveto
            0 9 0 12 2 7 rrcurveto
            127 498 rlineto
            9 36 16 25 80 0 rrcurveto
            17 hlineto
            return
          </CharString>
          <CharString index="117">
            -266 0 -4 -16 20 0 rlineto
            59 17 -17 -20 hvcurveto
            0 -10 -2 -7 -2 -9 rrcurveto
            -97 -386 -5 0 -236 465 -200 0 -4 -16 19 0 rlineto
            30 0 43 -7 19 -43 rrcurveto
            -126 -509 rlineto
            -8 -34 -23 -28 -75 0 rrcurveto
            -18 0 -4 -16 266 0 4 16 -19 0 rlineto
            -59 -17 15 20 hvcurveto
            0 11 1 8 2 8 rrcurveto
            108 448 6 0 274 -526 24 0 144 574 rlineto
            9 37 23 26 75 0 rrcurveto
            18 hlineto
            return
          </CharString>
          <CharString index="118">
            126 -82 123 -167 -255 -158 -244 -203 -137 104 -96 149 253 156 233 198 vhcurveto
            return
          </CharString>
          <CharString index="119">
            -141 -73 -275 -212 -78 -62 53 97 142 52 313 232 101 40 -82 -107 vhcurveto
            return
          </CharString>
          <CharString index="120">
            -4 -16 19 0 rlineto
            61 17 -16 -21 hvcurveto
            0 -8 -2 -9 -2 -8 rrcurveto
            -125 -497 rlineto
            -9 -34 -20 -28 -77 0 rrcurveto
            -17 0 -4 -16 341 0 4 16 -32 0 rlineto
            -59 -18 15 24 hvcurveto
            0 8 1 7 2 8 rrcurveto
            56 223 rlineto
            4 -1 3 -1 5 0 24 -4 22 -1 28 0 rrcurveto
            204 81 101 98 74 -62 86 -170 hvcurveto
            return
          </CharString>
          <CharString index="121">
            17 2 15 1 17 0 rrcurveto
            95 30 -53 -60 -102 -80 -70 -102 hvcurveto
            -20 0 -24 4 -16 4 rrcurveto
            return
          </CharString>
          <CharString index="122">
            -599 0 -46 -179 16 0 rlineto
            18 81 70 61 83 0 rrcurveto
            91 0 -133 -538 rlineto
            -8 -34 -20 -28 -78 0 rrcurveto
            -18 0 -4 -16 329 0 4 16 -21 0 rlineto
            -60 -16 16 21 hvcurveto
            0 9 3 7 2 9 rrcurveto
            133 538 98 0 rlineto
            41 58 -5 -66 hvcurveto
            0 -27 -3 -27 -2 -17 rrcurveto
            16 hlineto
            return
          </CharString>
          <CharString index="123">
            -222 0 -4 -16 9 0 rlineto
            32 0 12 -8 1 -16 0 -11 -6 -12 -9 -11 rrcurveto
            -164 -184 -60 179 rlineto
            -4 11 -2 9 0 8 rrcurveto
            31 22 4 30 vhcurveto
            19 0 4 16 -283 0 -4 -16 9 0 rlineto
            74 0 17 -52 11 -31 rrcurveto
            85 -231 -208 -230 rlineto
            -37 -40 -49 -30 -54 -7 rrcurveto
            -4 -16 249 0 4 16 -22 0 rlineto
            -38 -18 13 19 hvcurveto
            0 9 3 9 9 10 rrcurveto
            181 201 69 -194 rlineto
            3 -10 1 -8 0 -8 rrcurveto
            -37 -29 -4 -38 vhcurveto
            -11 0 -4 -16 281 0 4 16 -14 0 rlineto
            -50 0 -17 34 -12 34 rrcurveto
            -96 266 187 213 rlineto
            37 42 29 32 69 0 rrcurveto
            4 hlineto
            return
          </CharString>
          <CharString index="124">
            -563 0 -48 -158 17 0 rlineto
            38 115 89 6 96 0 rrcurveto
            202 0 -573 -616 581 0 46 178 -16 0 rlineto
            -35 -129 -88 -11 -94 0 rrcurveto
            -218 hlineto
            return
          </CharString>
          <CharString index="125">
            25 -22 25 -26 -29 -19 -25 -25 -26 19 -20 29 26 22 20 26 vhcurveto
            return
          </CharString>
          <CharString index="126">
            108 -67 46 -80 -148 -103 -161 -128 -73 34 -90 101 153 110 159 139 vhcurveto
            return
          </CharString>
          <CharString index="127">
            -76 -71 -223 -106 -56 -3 74 33 136 87 149 82 53 14 -55 -38 vhcurveto
            return
          </CharString>
          <CharString index="128">
            -8 -61 -40 -32 -53 0 -22 0 -37 10 -50 22 -93 40 -64 21 -33 0 rrcurveto
            -62 -73 -48 -104 hvcurveto
            26 hlineto
            10 60 41 31 50 0 21 0 36 -10 50 -21 108 -44 10 -16 69 0 rrcurveto
            70 69 56 96 hvcurveto
            return
          </CharString>
          <CharString index="129">
            -80 0 -676 -1845 80 0 rlineto
            return
          </CharString>
          <CharString index="130">
            50 -1500 -50 vlineto
            return
          </CharString>
          <CharString index="131">
            -15 -61 -62 -32 -99 0 -42 0 -70 10 -94 22 -174 40 -120 21 -62 0 -116 0 -79 -40 -20 -112 rrcurveto
            26 hlineto
            19 60 61 31 94 0 39 0 68 -11 94 -20 203 -44 19 -16 129 0 131 0 77 46 19 106 rrcurveto
            return
          </CharString>
          <CharString index="132">
            50 -2000 -50 vlineto
            return
          </CharString>
          <CharString index="133">
            -21 -67 -85 -35 -142 0 -60 0 -142 12 -134 23 -251 43 -183 24 -90 0 -167 0 -127 -45 -32 -121 rrcurveto
            26 hlineto
            28 66 115 33 135 0 56 0 109 -11 134 -22 292 -48 70 -18 185 0 188 0 96 49 26 117 rrcurveto
            return
          </CharString>
          <CharString index="134">
            50 -2500 -50 vlineto
            return
          </CharString>
          <CharString index="135">
            -27 -66 -164 -31 -153 0 -64 0 -225 11 -143 22 -268 41 -280 23 -97 0 -179 0 -222 -44 -35 -119 rrcurveto
            29 hlineto
            33 65 216 32 144 0 60 0 170 -12 144 -22 311 -47 179 -16 199 0 200 0 172 48 29 115 rrcurveto
            return
          </CharString>
          <CharString index="136">
            50 -3000 -50 vlineto
            return
          </CharString>
          <CharString index="137">
            -27 -66 -279 -31 -153 0 -64 0 -337 11 -143 22 -268 41 -380 23 -97 0 -179 0 -337 -44 -35 -119 rrcurveto
            29 hlineto
            33 65 331 32 144 0 60 0 270 -12 144 -22 311 -47 291 -16 199 0 200 0 287 48 29 115 rrcurveto
            return
          </CharString>
        <CharString name=".notdef">
          -351 endchar
        </CharString>
        <CharString name="A">
          121 0 20 196 41 397 20 hstem
          707 hmoveto
          -89 callsubr
          -5 257 rmoveto
          -88 callsubr
          endchar
        </CharString>
        <CharString name="B">
          66 0 37 588 37 hstem
          422 349 rmoveto
          52 13 20 8 24 21 25 22 16 41 0 41 rrcurveto
          106 -89 61 -173 vhcurveto
          -280 -19 hlineto
          81 -5 15 -9 0 -79 rrcurveto
          -437 vlineto
          0 -76 -17 -16 -79 -2 rrcurveto
          -19 337 vlineto
          145 94 67 111 hvcurveto
          0 44 -17 42 -32 29 -29 26 -27 18 -66 11 rrcurveto
          -207 18 rmoveto
          227 vlineto
          23 7 9 17 vhcurveto
          41 hlineto
          119 58 -51 -84 -83 -49 -41 -101 hvcurveto
          -92 -40 rmoveto
          118 -4 38 4 60 -40 33 -22 14 -37 0 -48 0 -43 -13 -34 -25 -22 -44 -39 -35 -4 -84 0 rrcurveto
          -46 -16 11 34 hvcurveto
          endchar
        </CharString>
        <CharString name="C">
          66 -14 44 606 40 hstem
          614 131 rmoveto
          -87 callsubr
          endchar
        </CharString>
        <CharString name="D">
          121 0 37 588 37 hstem
          16 662 rmoveto
          -86 callsubr
          -80 -79 rmoveto
          -85 callsubr
          endchar
        </CharString>
        <CharString name="E">
          10 0 37 290 41 256 38 hstem
          597 169 rmoveto
          -84 callsubr
          endchar
        </CharString>
        <CharString name="F">
          -45 0 20 307 41 256 38 hstem
          546 519 rmoveto
          -5 143 -529 0 0 -19 rlineto
          77 -6 10 -13 0 -73 rrcurveto
          -428 vlineto
          0 -87 -12 -12 -76 -5 rrcurveto
          -19 281 19 vlineto
          -77 4 -14 13 0 76 rrcurveto
          215 142 vlineto
          86 0 19 -15 8 -82 rrcurveto
          23 233 -23 hlineto
          -9 -78 -20 -17 -84 0 rrcurveto
          -142 217 hlineto
          31 5 8 29 vhcurveto
          132 hlineto
          121 0 18 -16 15 -89 rrcurveto
          endchar
        </CharString>
        <CharString name="G">
          121 -14 40 610 40 hstem
          709 354 rmoveto
          -83 callsubr
          endchar
        </CharString>
        <CharString name="H">
          121 0 20 295 44 283 20 hstem
          703 hmoveto
          -82 callsubr
          endchar
        </CharString>
        <CharString name="I">
          -268 0 20 622 20 hstem
          315 hmoveto
          -81 callsubr
          endchar
        </CharString>
        <CharString name="J">
          -228 -14 38 618 20 hstem
          354 662 rmoveto
          -80 callsubr
          endchar
        </CharString>
        <CharString name="K">
          121 0 20 622 20 hstem
          723 hmoveto
          -79 callsubr
          endchar
        </CharString>
        <CharString name="L">
          10 0 39 603 20 hstem
          598 174 rmoveto
          -78 callsubr
          endchar
        </CharString>
        <CharString name="M">
          288 0 20 622 20 hstem
          109 44 vstem
          864 hmoveto
          -77 callsubr
          endchar
        </CharString>
        <CharString name="N">
          121 -11 20 -9 20 622 20 hstemhm
          109 44 415 44 hintmask 01111000
          707 662 rmoveto
          -76 callsubr
          hintmask 10111000
          -75 callsubr
          endchar
        </CharString>
        <CharString name="O">
          121 -14 36 618 36 hstem
          688 331 rmoveto
          -74 callsubr
          -114 6 rmoveto
          -73 callsubr
          endchar
        </CharString>
        <CharString name="P">
          -44 0 20 268 40 297 37 hstem
          16 662 rmoveto
          -72 callsubr
          -73 -73 rmoveto
          -71 callsubr
          endchar
        </CharString>
        <CharString name="Q">
          121 640 36 hstem
          701 -177 rmoveto
          18 vlineto
          -114 7 -88 41 -73 104 68 13 42 15 44 43 73 70 35 80 0 119 rrcurveto
          207 -136 136 -191 -187 -140 -132 -212 vhcurveto
          0 -90 28 -78 48 -64 38 -51 39 -23 78 -27 rrcurveto
          41 -52 rlineto
          68 -86 123 -38 156 0 rrcurveto
          -79 515 rmoveto
          0 -100 -24 -98 -40 -46 -37 -43 -50 -29 -62 0 -57 0 -65 30 -33 48 -38 53 -20 86 0 96 0 95 26 92 40 47 37 45 53 26 54 0 rrcurveto
          47 0 42 -15 36 -30 57 -48 34 -94 0 -115 rrcurveto
          endchar
        </CharString>
        <CharString name="R">
          66 0 20 605 37 hstem
          660 hmoveto
          -70 callsubr
          -294 583 rmoveto
          -69 callsubr
          endchar
        </CharString>
        <CharString name="S">
          -45 -14 36 -22 20 615 41 -34 20 hstemhm
          71 86 hintmask 00101000
          469 463 rmoveto
          -68 callsubr
          hintmask 00011000
          -67 callsubr
          hintmask 10101000
          -66 callsubr
          hintmask 01001000
          -65 callsubr
          hintmask 10101000
          -64 callsubr
          endchar
        </CharString>
        <CharString name="T">
          10 0 20 600 42 hstem
          593 492 rmoveto
          -63 callsubr
          endchar
        </CharString>
        <CharString name="U">
          121 -14 44 612 20 hstem
          567 44 vstem
          705 662 rmoveto
          -62 callsubr
          endchar
        </CharString>
        <CharString name="V">
          121 -11 20 633 20 hstem
          697 662 rmoveto
          -204 -19 hlineto
          40 -4 32 2 0 -39 0 -17 -7 -25 -12 -30 rrcurveto
          -147 -369 -152 342 rlineto
          -30 67 -9 24 0 16 0 20 13 9 32 2 rrcurveto
          28 2 0 19 -265 0 0 -19 rlineto
          50 -1 15 -12 43 -97 rrcurveto
          244 -544 15 0 222 563 rlineto
          29 74 23 16 40 1 rrcurveto
          endchar
        </CharString>
        <CharString name="W">
          343 -11 20 633 20 hstem
          932 662 rmoveto
          -61 callsubr
          endchar
        </CharString>
        <CharString name="X">
          121 0 20 622 20 hstem
          704 hmoveto
          -60 callsubr
          endchar
        </CharString>
        <CharString name="Y">
          121 0 20 622 20 hstem
          703 662 rmoveto
          -59 callsubr
          endchar
        </CharString>
        <CharString name="Z">
          11 0 38 586 38 hstem
          598 176 rmoveto
          -58 callsubr
          endchar
        </CharString>
        <CharString name="ampersand">
          177 -13 53 -53 71 586 32 hstemhm
          42 92 68 79 157 53 hintmask 01111100
          735 111 rmoveto
          -32 -40 -21 -13 -39 0 -61 0 -44 31 -47 61 55 74 25 49 46 73 25 40 19 19 50 0 rrcurveto
          21 -216 -21 vlineto
          50 -5 15 -12 0 -30 0 -46 -27 -48 -65 -86 -56 63 -35 55 -41 88 117 50 38 46 0 72 rrcurveto
          79 -58 45 -79 -85 -67 -60 -90 vhcurveto
          0 -45 7 -36 28 -68 rrcurveto
          -38 -22 rlineto
          -102 -59 -55 -78 0 -81 rrcurveto
          hintmask 10011100
          -100 64 -50 107 vhcurveto
          81 0 60 25 75 66 rrcurveto
          hintmask 01111100
          63 -65 49 -26 58 0 67 0 55 40 29 73 rrcurveto
          -312 456 rmoveto
          0 -59 -31 -42 -86 -39 -33 61 -7 33 0 51 rrcurveto
          50 32 33 47 46 32 -39 -49 vhcurveto
          hintmask 10011100
          -34 -452 rmoveto
          -60 -47 -43 -17 -43 0 -71 0 -53 49 0 85 0 69 31 44 87 56 rrcurveto
          54 -113 40 -58 58 -68 rrcurveto
          endchar
        </CharString>
        <CharString name="asterisk">
          -101 656 20 hstem
          268 471 rmoveto
          -101 callsubr
          endchar
        </CharString>
        <CharString name="at">
          320 -14 39 118 33 -32 43 277 44 137 31 hstemhm
          116 84 121 71 377 40 hintmask 11011111
          688 73 rmoveto
          -72 -35 -62 -13 -67 0 -171 0 -116 123 0 174 0 74 23 78 39 56 51 73 74 42 95 0 rrcurveto
          157 130 -123 -149 -101 -60 -96 -66 -29 -13 14 33 hvcurveto
          0 7 1 5 1 5 rrcurveto
          65 254 -69 0 -9 -38 -2 0 rlineto
          -13 35 -24 17 -36 0 -52 0 -41 -24 -35 -46 -39 -51 -27 -66 0 -65 rrcurveto
          hintmask 00100111
          -69 39 -43 49 vhcurveto
          47 0 47 27 31 45 rrcurveto
          2 hlineto
          hintmask 11001111
          5 -44 40 -29 44 0 rrcurveto
          99 85 111 129 165 -143 128 -185 hvcurveto
          -86 0 -76 -23 -62 -46 -84 -63 -57 -103 0 -114 0 -197 158 -144 208 0 70 0 55 13 93 44 rrcurveto
          hintmask 00110111
          -128 361 rmoveto
          0 -45 -18 -65 -26 -49 -20 -36 -29 -22 -27 0 -37 0 -23 33 0 54 0 44 14 43 22 33 31 46 38 24 29 0 rrcurveto
          29 17 -21 -39 hvcurveto
          endchar
        </CharString>
        <CharString name="colon">
          -323 -11 111 248 111 hstem
          81 111 vstem
          192 403 rmoveto
          -98 callsubr
          -359 vmoveto
          -98 callsubr
          endchar
        </CharString>
        <CharString name="comma">
          -351 -6 20 -16 20 hstemhm
          156 39 hintmask 10100000
          83 -141 rmoveto
          69 33 43 63 0 60 rrcurveto
          52 -35 35 -45 -36 -24 -23 -34 -34 21 -17 37 vhcurveto
          hintmask 01100000
          11 0 10 4 8 0 8 0 6 -6 0 -7 0 -33 -28 -37 -55 -37 rrcurveto
          endchar
        </CharString>
        <CharString name="dollar">
          -101 0 20 hstem
          52 74 104 34 114 80 vstem
          264 637 rmoveto
          80 -10 46 -44 20 -83 rrcurveto
          15 111 hlineto
          -31 31 -49 17 -81 5 rrcurveto
          63 -34 -63 vlineto
          -93 -6 -85 -45 0 -100 0 -84 40 -41 138 -78 rrcurveto
          -282 vlineto
          -88 0 -62 53 -21 100 rrcurveto
          -15 -130 hlineto
          55 -37 44 -14 87 0 rrcurveto
          -87 34 87 vlineto
          115 16 79 38 0 116 0 37 -7 32 -14 21 -27 41 -25 25 -121 65 rrcurveto
          -34 16 rmoveto
          -84 57 -20 24 0 44 0 51 33 40 71 14 rrcurveto
          34 -344 rmoveto
          91 -54 23 -31 0 -61 0 -71 -33 -31 -81 -17 rrcurveto
          endchar
        </CharString>
        <CharString name="eight">
          -101 -14 28 634 28 hstemhm
          56 76 -70 74 219 69 -55 76 hintmask 11000100
          445 155 rmoveto
          0 80 -32 54 -123 82 rrcurveto
          hintmask 11011000
          99 53 35 34 0 75 rrcurveto
          78 -69 65 -99 -111 -83 -60 -96 vhcurveto
          0 -65 21 -38 103 -85 rrcurveto
          hintmask 11100100
          -107 -75 -23 -39 0 -69 rrcurveto
          -94 79 -69 113 vhcurveto
          120 77 66 103 hvcurveto
          hintmask 11011000
          -90 378 rmoveto
          0 -62 -26 -42 -68 -40 -88 52 -37 46 0 62 rrcurveto
          62 43 37 67 vhcurveto
          68 41 -46 -69 hvcurveto
          hintmask 11100100
          -84 -261 rmoveto
          68 -46 30 -40 0 -62 rrcurveto
          -65 -45 -45 -65 -76 -51 52 92 vhcurveto
          0 65 21 41 59 48 rrcurveto
          endchar
        </CharString>
        <CharString name="equal">
          120 66 134 66 hstem
          637 320 rmoveto
          -93 callsubr
          589 -200 rmoveto
          -93 callsubr
          endchar
        </CharString>
        <CharString name="exclam">
          -268 -9 106 559 20 hstem
          130 106 vstem
          175 176 rmoveto
          -107 callsubr
          103 -515 rmoveto
          -106 callsubr
          endchar
        </CharString>
        <CharString name="five">
          -101 -14 37 560 79 hstem
          356 70 vstem
          438 681 rmoveto
          -9 7 rlineto
          -16 -21 -9 -5 -23 0 rrcurveto
          -207 0 -109 -237 rlineto
          0 -1 -3 -2 -6 3 -2 9 hvcurveto
          96 0 70 -32 47 -38 45 -36 22 -50 0 -64 0 -86 -65 -83 -70 0 -20 0 -23 9 -28 23 -32 26 -19 5 -23 0 rrcurveto
          -28 -17 -13 -25 -38 52 -24 75 hvcurveto
          68 0 55 15 47 34 68 50 30 62 0 96 0 53 -9 38 -26 36 -57 79 -50 22 -143 27 rrcurveto
          40 85 194 0 rlineto
          16 0 8 6 3 7 rrcurveto
          endchar
        </CharString>
        <CharString name="four">
          -101 0 20 147 64 425 20 hstem
          292 78 vstem
          473 167 rmoveto
          64 -103 445 -44 vlineto
          -314 -445 0 -64 280 0 0 -167 78 0 0 167 rlineto
          -78 64 rmoveto
          -240 0 240 343 rlineto
          endchar
        </CharString>
        <CharString name="greater">
          621 249 rmoveto
          -92 callsubr
          endchar
        </CharString>
        <CharString name="hyphen">
          -268 194 63 hstem
          285 194 rmoveto
          63 -246 -63 vlineto
          endchar
        </CharString>
        <CharString name="less">
          621 -24 rmoveto
          -94 callsubr
          endchar
        </CharString>
        <CharString name="nine">
          -101 237 43 368 28 hstem
          30 92 vstem
          59 -22 rmoveto
          130 18 65 24 85 77 80 73 40 109 0 115 0 84 -24 72 -40 50 -39 48 -54 28 -64 0 rrcurveto
          -119 -89 -101 -135 -122 72 -81 108 hvcurveto
          59 0 48 15 43 42 -40 -164 -112 -105 -152 -27 rrcurveto
          306 357 rmoveto
          -53 -73 -22 -44 -75 -48 75 119 vhcurveto
          0 54 15 59 20 27 17 22 26 12 30 0 rrcurveto
          87 45 -86 -168 hvcurveto
          endchar
        </CharString>
        <CharString name="numbersign">
          -101 0 20 196 55 134 55 182 20 hstem
          495 405 rmoveto
          55 -96 vlineto
          30 202 -58 0 -30 -202 -133 0 31 202 -58 0 -31 -202 -117 0 0 -55 109 0 -21 -134 -115 0 0 -55 106 0 -33 -216 rlineto
          58 0 33 216 134 0 -31 -216 58 0 31 216 108 0 0 55 -99 0 20 134 rlineto
          -58 hmoveto
          -20 -134 -134 0 21 134 rlineto
          endchar
        </CharString>
        <CharString name="one">
          -101 0 20 636 20 hstem
          213 86 vstem
          394 hmoveto
          15 vlineto
          -75 -20 18 43 hvcurveto
          0 597 -9 3 -179 -91 0 -14 27 10 rlineto
          18 7 17 5 10 0 rrcurveto
          21 9 -15 -34 hvcurveto
          -449 vlineto
          0 -55 -21 -21 -74 -4 rrcurveto
          -15 vlineto
          endchar
        </CharString>
        <CharString name="parenleft">
          -268 656 20 hstem
          48 86 vstem
          304 -161 rmoveto
          -140 117 -30 113 0 186 0 193 31 93 139 119 rrcurveto
          -9 16 rlineto
          -160 -95 -87 -144 0 -185 0 -170 86 -169 158 -90 rrcurveto
          endchar
        </CharString>
        <CharString name="parenleft.size1">
          -133 139 81 vstem
          382 -134 rmoveto
          -90 110 -72 169 0 306 0 303 72 172 90 110 rrcurveto
          30 vlineto
          -142 -134 -101 -214 0 -267 0 -272 101 -209 142 -134 rrcurveto
          endchar
        </CharString>
        <CharString name="parenleft.size2">
          -12 139 95 vstem
          503 -243 rmoveto
          -134 165 -135 265 0 456 0 458 135 294 134 138 rrcurveto
          33 vlineto
          -213 -171 -151 -352 0 -400 0 -409 151 -313 213 -200 rrcurveto
          endchar
        </CharString>
        <CharString name="parenleft.size3">
          149 182 110 vstem
          667 -346 rmoveto
          -178 220 -197 349 0 613 0 606 197 396 178 184 rrcurveto
          44 vlineto
          -284 -228 -201 -464 0 -538 0 -541 201 -422 284 -267 rrcurveto
          endchar
        </CharString>
        <CharString name="parenleft.size4">
          207 124 130 vstem
          732 -453 rmoveto
          -224 232 -254 504 0 746 0 777 254 473 224 231 rrcurveto
          56 vlineto
          -355 -286 -253 -578 0 -673 0 -675 253 -577 355 -286 rrcurveto
          endchar
        </CharString>
        <CharString name="parenright">
          -268 656 20 hstem
          199 86 vstem
          29 660 rmoveto
          145 -114 25 -115 0 -187 0 -194 -28 -94 -142 -117 rrcurveto
          9 -16 rlineto
          159 97 88 142 0 185 0 170 -91 167 -153 92 rrcurveto
          endchar
        </CharString>
        <CharString name="parenright.size1">
          -133 248 81 vstem
          86 1036 rmoveto
          90 -110 72 -169 0 -306 0 -303 -72 -172 -90 -110 rrcurveto
          -30 vlineto
          142 134 101 214 0 267 0 272 -101 209 -142 134 rrcurveto
          endchar
        </CharString>
        <CharString name="parenright.size2">
          7 383 95 vstem
          114 1530 rmoveto
          134 -165 135 -262 0 -460 0 -454 -135 -297 -134 -138 rrcurveto
          -33 vlineto
          213 171 151 351 0 400 0 409 -151 314 -213 200 rrcurveto
          endchar
        </CharString>
        <CharString name="parenright.size3">
          149 458 110 vstem
          83 2018 rmoveto
          178 -217 197 -351 0 -614 0 -606 -197 -396 -178 -184 rrcurveto
          -44 vlineto
          284 228 201 468 0 534 0 545 -201 418 -284 267 rrcurveto
          endchar
        </CharString>
        <CharString name="parenright.size4">
          207 554 130 vstem
          76 2510 rmoveto
          224 -232 254 -482 0 -766 0 -757 -254 -495 -224 -231 rrcurveto
          -56 vlineto
          355 286 253 585 0 667 0 681 -253 570 -355 286 rrcurveto
          endchar
        </CharString>
        <CharString name="percent">
          146 -19 27 294 28 -4 27 230 26 47 20 hstemhm
          61 71 189 24 56 72 190 23 hintmask 1101111110000000
          686 213 rmoveto
          74 -35 43 -61 -96 -93 -104 -107 -78 53 -60 68 vhcurveto
          86 78 111 121 hvcurveto
          -23 2 rmoveto
          -105 callsubr
          -42 491 rmoveto
          -104 callsubr
          hintmask 0011011110000000
          -103 callsubr
          130 587 rmoveto
          -102 callsubr
          endchar
        </CharString>
        <CharString name="period">
          -351 -11 111 hstem
          70 111 vstem
          181 43 rmoveto
          -99 callsubr
          endchar
        </CharString>
        <CharString name="plus">
          220 66 hstem
          309 66 vstem
          636 220 rmoveto
          -100 callsubr
          endchar
        </CharString>
        <CharString name="question">
          -157 -8 106 349 20 179 30 hstem
          68 51 65 106 32 92 vstem
          244 164 rmoveto
          -91 callsubr
          63 -119 rmoveto
          -90 callsubr
          endchar
        </CharString>
        <CharString name="quotedbl">
          -193 656 20 hstem
          299 431 rmoveto
          15 98 17 76 0 30 rrcurveto
          23 -18 18 -24 -25 -18 -18 -25 vhcurveto
          0 -17 14 -87 18 -98 rrcurveto
          -148 hmoveto
          20 96 12 78 0 30 rrcurveto
          24 -18 17 -24 -25 -18 -17 -26 vhcurveto
          0 -17 14 -87 18 -98 rrcurveto
          endchar
        </CharString>
        <CharString name="quotesingle">
          -421 656 20 hstem
          101 431 rmoveto
          20 100 12 75 0 30 rrcurveto
          23 -15 17 -27 -24 -19 -17 -25 vhcurveto
          0 -28 14 -77 18 -98 rrcurveto
          endchar
        </CharString>
        <CharString name="semicolon">
          -323 -6 20 -16 20 330 111 hstemhm
          80 111 -11 39 hintmask 10110000
          191 403 rmoveto
          -97 callsubr
          hintmask 10101000
          -84 -544 rmoveto
          -96 callsubr
          hintmask 10110000
          -33 -26 -23 -33 -33 21 -19 37 hvcurveto
          hintmask 01001000
          -95 callsubr
          endchar
        </CharString>
        <CharString name="seven">
          -101 -8 20 576 74 hstem
          449 646 rmoveto
          16 -369 vlineto
          -60 -147 18 -9 rlineto
          42 68 17 14 58 0 rrcurveto
          215 0 -198 -596 65 0 rlineto
          endchar
        </CharString>
        <CharString name="six">
          -101 -14 28 368 46 hstem
          34 93 251 90 vstem
          446 684 rmoveto
          -138 -15 -79 -24 -86 -90 -71 -73 -38 -95 0 -108 0 -70 19 -71 28 -51 35 -64 63 -37 79 0 66 0 56 27 37 46 33 40 18 56 0 64 rrcurveto
          129 -72 80 -117 vhcurveto
          -44 0 -34 -7 -49 -38 27 151 112 108 157 26 rrcurveto
          -70 -480 rmoveto
          -102 -37 -72 -72 -94 -48 100 152 92 59 24 57 93 42 -66 -128 vhcurveto
          endchar
        </CharString>
        <CharString name="slash">
          -323 -14 20 650 20 hstem
          287 676 rmoveto
          -67 0 -229 -690 68 0 rlineto
          endchar
        </CharString>
        <CharString name="slash.size1">
          -22 552 1066 rmoveto
          -73 0 -454 -1230 73 0 rlineto
          endchar
        </CharString>
        <CharString name="slash.size2">
          205 781 1566 rmoveto
          22 callsubr
          endchar
        </CharString>
        <CharString name="slash.size3">
          500 1071 2066 rmoveto
          -103 0 -938 -2460 103 0 rlineto
          endchar
        </CharString>
        <CharString name="slash.size4">
          708 1293 2566 rmoveto
          -104 0 -1173 -3075 104 0 rlineto
          endchar
        </CharString>
        <CharString name="three">
          -101 -14 36 594 60 hstemhm
          318 79 -38 72 hintmask 11100000
          61 510 rmoveto
          41 74 46 32 62 0 66 0 42 -34 0 -68 0 -61 -32 -45 -49 -28 -20 -12 -26 -11 -38 -13 rrcurveto
          -14 vlineto
          57 0 23 -3 22 -7 rrcurveto
          hintmask 11010000
          69 -20 35 -49 0 -76 0 -85 -56 -68 -74 0 -28 0 -21 5 -37 26 -28 20 -16 6 -17 0 rrcurveto
          -23 -18 -15 -21 -36 39 -21 73 hvcurveto
          89 0 95 29 48 64 29 38 17 49 0 53 0 52 -16 46 -28 31 -21 22 -18 12 -44 19 rrcurveto
          hintmask 11100000
          67 40 26 50 0 48 0 82 -63 55 -93 0 -104 0 -63 -67 -29 -95 rrcurveto
          endchar
        </CharString>
        <CharString name="two">
          -101 0 76 526 74 hstem
          337 86 vstem
          474 137 rmoveto
          -14 6 rlineto
          -33 -56 -21 -11 -42 0 rrcurveto
          -234 0 165 176 rlineto
          89 94 39 75 0 79 0 99 -72 77 -113 0 -123 0 -64 -82 -21 -117 rrcurveto
          21 -5 rlineto
          40 98 35 32 72 0 85 0 54 -50 0 -91 0 -85 -36 -76 -94 -99 rrcurveto
          -178 -189 0 -12 391 0 rlineto
          endchar
        </CharString>
        <CharString name="u1D400">
          121 0 20 177 39 hstem
          689 hmoveto
          -22 callsubr
          17 236 rmoveto
          -195 0 94 243 rlineto
          endchar
        </CharString>
        <CharString name="u1D401">
          66 0 32 614 30 hstem
          426 365 rmoveto
          -21 callsubr
          -162 228 rmoveto
          -20 callsubr
          -30 vmoveto
          -19 callsubr
          endchar
        </CharString>
        <CharString name="u1D402">
          121 -19 48 613 20 -4 33 hstemhm
          hintmask 10100000
          657 152 rmoveto
          -44 -46 -28 -25 -32 -18 -40 -22 -42 -12 -44 0 -59 0 -59 30 -29 46 -42 66 -12 73 0 101 0 200 79 113 105 0 67 0 54 -35 46 -55 rrcurveto
          24 -28 24 -33 19 -54 rrcurveto
          25 235 -27 hlineto
          hintmask 01000000
          -18 callsubr
          hintmask 10100000
          -58 24 -50 11 -48 0 rrcurveto
          -204 -143 -156 -212 -195 135 -147 215 hvcurveto
          115 0 80 31 93 115 rrcurveto
          endchar
        </CharString>
        <CharString name="u1D403">
          121 0 35 607 34 hstem
          14 676 rmoveto
          -25 vlineto
          64 -6 19 -15 0 -46 rrcurveto
          -486 vlineto
          0 -48 -25 -23 -58 -2 rrcurveto
          -25 309 vlineto
          101 0 90 28 61 53 72 63 43 98 0 103 rrcurveto
          206 -136 125 -228 vhcurveto
          -67 -78 rmoveto
          28 14 16 39 vhcurveto
          75 0 50 -35 38 -66 29 -51 12 -74 0 -86 0 -88 -19 -90 -31 -45 -34 -48 -49 -24 -66 0 rrcurveto
          -45 -13 20 45 hvcurveto
          endchar
        </CharString>
        <CharString name="u1D404">
          66 0 31 611 34 hstem
          641 208 rmoveto
          -17 callsubr
          endchar
        </CharString>
        <CharString name="u1D405">
          10 0 20 622 34 hstem
          583 474 rmoveto
          202 -567 -25 vlineto
          69 -4 19 -14 0 -58 rrcurveto
          -472 vlineto
          0 -56 -14 -14 -74 -8 rrcurveto
          -25 360 25 vlineto
          -92 4 -18 15 0 57 rrcurveto
          228 vlineto
          102 -2 41 -35 10 -118 rrcurveto
          25 338 -25 hlineto
          -14 -113 -39 -36 -100 0 rrcurveto
          228 vlineto
          37 19 14 51 vhcurveto
          88 0 44 -12 31 -27 35 -30 11 -23 14 -76 rrcurveto
          endchar
        </CharString>
        <CharString name="u1D406">
          177 -19 33 628 20 -4 33 hstemhm
          hintmask 10100000
          755 287 rmoveto
          -344 -25 hlineto
          86 -5 16 -17 0 -52 rrcurveto
          -89 vlineto
          -51 -25 -34 -71 vhcurveto
          -77 0 -43 29 -35 58 -33 55 -15 79 0 103 0 207 68 113 116 0 47 0 48 -18 43 -38 43 -38 18 -35 35 -76 rrcurveto
          25 235 -27 hlineto
          hintmask 01000000
          -18 callsubr
          hintmask 10100000
          -58 24 -45 11 -52 0 rrcurveto
          -200 -148 -161 -199 -214 154 -136 201 hvcurveto
          104 0 108 25 65 38 rrcurveto
          118 vlineto
          0 63 11 29 75 8 rrcurveto
          endchar
        </CharString>
        <CharString name="u1D407">
          177 0 20 306 47 283 20 hstem
          759 hmoveto
          -16 callsubr
          endchar
        </CharString>
        <CharString name="u1D408">
          -212 0 20 636 20 hstem
          370 hmoveto
          -15 callsubr
          endchar
        </CharString>
        <CharString name="u1D409">
          -101 -96 33 719 20 hstem
          478 676 rmoveto
          -351 -25 hlineto
          81 -3 20 -13 0 -58 rrcurveto
          -550 vlineto
          -62 -18 -28 -46 -28 -17 12 20 vhcurveto
          0 26 27 10 0 30 rrcurveto
          40 -34 36 -38 -37 -34 -37 -37 vhcurveto
          0 -42 30 -43 37 -25 25 -17 43 -6 40 0 rrcurveto
          139 73 71 151 hvcurveto
          430 vlineto
          0 72 13 18 75 5 rrcurveto
          endchar
        </CharString>
        <CharString name="u1D40A">
          177 0 20 636 20 hstem
          769 hmoveto
          -14 callsubr
          endchar
        </CharString>
        <CharString name="u1D40B">
          66 0 31 625 20 hstem
          638 227 rmoveto
          -29 hlineto
          -27 -62 -26 -48 -34 -31 -41 -37 -46 -18 -83 0 rrcurveto
          -65 -20 15 43 hvcurveto
          464 vlineto
          0 82 13 13 87 4 rrcurveto
          24 -348 -25 vlineto
          68 -4 18 -14 0 -57 rrcurveto
          -478 vlineto
          0 -53 -13 -11 -73 -9 rrcurveto
          -25 577 vlineto
          endchar
        </CharString>
        <CharString name="u1D40C">
          343 0 20 636 20 hstem
          105 42 vstem
          921 hmoveto
          -13 callsubr
          endchar
        </CharString>
        <CharString name="u1D40D">
          121 -18 20 -2 20 636 20 hstemhm
          104 44 431 44 hintmask 01111000
          701 676 rmoveto
          -12 callsubr
          hintmask 10111000
          -11 callsubr
          endchar
        </CharString>
        <CharString name="u1D40E">
          177 -19 33 644 33 hstem
          743 335 rmoveto
          -10 callsubr
          -177 -7 rmoveto
          -9 callsubr
          endchar
        </CharString>
        <CharString name="u1D40F">
          10 0 20 621 35 hstem
          16 676 rmoveto
          -8 callsubr
          -69 -70 rmoveto
          -7 callsubr
          endchar
        </CharString>
        <CharString name="u1D410">
          177 -176 47 787 33 hstem
          730 -117 rmoveto
          -33 -10 -17 -2 -20 0 -47 0 -42 18 -34 34 -19 19 -10 15 -18 37 158 48 95 114 0 171 rrcurveto
          220 -148 144 -206 -205 -149 -144 -217 vhcurveto
          0 -155 85 -131 153 -46 21 -44 12 -19 23 -23 56 -56 84 -32 88 0 67 0 47 10 65 25 rrcurveto
          -170 476 rmoveto
          -205 -61 -116 -116 -116 -61 114 207 209 64 114 112 114 64 -111 -212 vhcurveto
          endchar
        </CharString>
        <CharString name="u1D411">
          121 0 20 622 34 hstem
          716 hmoveto
          25 vlineto
          -18 0 -17 9 -9 13 rrcurveto
          -199 282 rlineto
          58 16 26 16 28 25 29 27 16 46 0 45 rrcurveto
          115 -101 57 -195 vhcurveto
          -308 -25 hlineto
          74 -5 14 -17 0 -78 rrcurveto
          -431 vlineto
          0 -79 -10 -7 -78 -9 rrcurveto
          -25 338 25 vlineto
          -78 10 -10 9 0 73 rrcurveto
          196 28 vlineto
          207 -313 rlineto
          -235 597 rmoveto
          33 14 12 39 93 37 -42 -106 vhcurveto
          0 -122 -52 -26 -131 -1 rrcurveto
          endchar
        </CharString>
        <CharString name="u1D412">
          -45 -19 33 646 31 hstem
          484 474 rmoveto
          218 -30 vlineto
          -7 -27 -7 -6 -18 0 -9 0 -12 2 -21 7 -46 17 -32 6 -39 0 -136 0 -83 -74 0 -127 0 -101 58 -55 113 -54 43 -21 45 -20 34 -24 rrcurveto
          34 -24 23 -28 0 -36 0 -69 -49 -44 -77 0 -58 0 -48 24 -38 48 -29 37 -14 35 -17 71 rrcurveto
          -29 -248 29 hlineto
          6 26 8 8 16 0 8 0 11 -3 22 -7 49 -17 37 -7 44 0 148 0 100 87 0 126 0 76 -45 65 -64 35 -51 28 -48 23 -49 26 rrcurveto
          -80 42 -23 23 0 49 0 57 41 42 69 0 45 0 42 -19 36 -37 34 -35 16 -30 20 -65 rrcurveto
          endchar
        </CharString>
        <CharString name="u1D413">
          66 0 20 636 20 hstem
          636 475 rmoveto
          -6 callsubr
          endchar
        </CharString>
        <CharString name="u1D414">
          121 -19 49 626 20 hstem
          579 44 vstem
          701 676 rmoveto
          -219 -25 hlineto
          74 -6 23 -20 0 -73 rrcurveto
          -300 vlineto
          -148 -59 -74 -117 -97 -49 63 139 vhcurveto
          318 vlineto
          0 82 17 13 78 6 rrcurveto
          25 -336 -25 vlineto
          70 -7 12 -8 0 -81 rrcurveto
          -324 vlineto
          0 -97 23 -54 57 -45 47 -37 64 -17 74 0 71 0 70 20 43 35 49 39 27 77 0 100 rrcurveto
          314 vlineto
          0 59 14 16 64 10 rrcurveto
          endchar
        </CharString>
        <CharString name="u1D415">
          121 -18 20 654 20 hstem
          701 676 rmoveto
          -213 -25 hlineto
          71 -5 15 -7 0 -32 0 -16 -3 -11 -17 -44 rrcurveto
          -127 -329 -138 334 rlineto
          -20 48 -3 9 0 15 0 23 15 11 38 2 rrcurveto
          33 2 0 25 -336 0 0 -25 rlineto
          50 -7 10 -7 24 -56 rrcurveto
          256 -599 27 0 228 587 rlineto
          24 62 14 13 52 7 rrcurveto
          endchar
        </CharString>
        <CharString name="u1D416">
          399 -15 20 651 20 hstem
          981 676 rmoveto
          -182 -25 hlineto
          54 -3 15 -10 0 -31 0 -13 -2 -15 -5 -14 rrcurveto
          -112 -343 -108 336 rlineto
          -11 34 -3 12 0 10 0 24 15 9 44 3 rrcurveto
          13 1 0 25 -312 0 0 -25 rlineto
          41 -2 22 -8 9 -25 rrcurveto
          35 -96 -118 -308 -120 364 rlineto
          -6 17 -1 7 0 9 0 29 12 9 52 4 rrcurveto
          25 -294 -25 vlineto
          42 -6 10 -9 17 -49 rrcurveto
          212 -602 28 0 186 477 171 -477 27 0 200 602 rlineto
          13 40 23 21 33 3 rrcurveto
          endchar
        </CharString>
        <CharString name="u1D417">
          121 0 20 636 20 hstem
          699 hmoveto
          -5 callsubr
          endchar
        </CharString>
        <CharString name="u1D418">
          121 0 20 636 20 hstem
          699 676 rmoveto
          -220 -25 hlineto
          68 -5 16 -8 0 -29 0 -20 -15 -39 -26 -43 rrcurveto
          -109 -178 -120 232 rlineto
          -12 23 -12 27 0 9 0 23 14 3 40 3 rrcurveto
          27 2 0 25 -335 0 0 -25 rlineto
          34 -2 30 -23 19 -34 rrcurveto
          180 -328 0 -136 rlineto
          0 -75 -10 -21 -83 -7 rrcurveto
          -25 347 25 vlineto
          -79 7 -13 13 0 78 rrcurveto
          0 178 191 311 rlineto
          14 23 20 11 34 5 rrcurveto
          endchar
        </CharString>
        <CharString name="u1D419">
          66 0 35 621 20 hstem
          634 242 rmoveto
          -26 hlineto
          -29 -85 -13 -42 -56 -40 -41 -29 -66 -11 -95 0 rrcurveto
          -83 0 379 625 0 16 -523 0 -22 -207 28 0 rlineto
          45 143 41 24 154 2 rrcurveto
          83 1 -382 -623 0 -16 579 0 rlineto
          endchar
        </CharString>
        <CharString name="u1D41A">
          -101 -14 20 435 32 hstem
          473 64 rmoveto
          -10 -10 rlineto
          -3 -3 -3 -1 -5 0 rrcurveto
          -14 -7 11 17 hvcurveto
          261 vlineto
          86 -74 48 -122 -113 -78 -46 -80 -42 24 -26 41 40 28 26 34 vhcurveto
          0 14 -6 12 -13 16 -9 10 -2 7 0 6 rrcurveto
          24 29 13 36 59 22 -29 -64 vhcurveto
          -68 vlineto
          -116 -33 -47 -18 -38 -25 -45 -30 -22 -38 0 -44 0 -74 46 -32 64 0 58 0 46 19 55 50 11 -51 22 -18 49 0 43 0 31 16 38 41 rrcurveto
          -195 54 rmoveto
          -22 -31 -24 -9 -24 0 -30 0 -22 23 0 44 0 58 42 41 80 22 rrcurveto
          endchar
        </CharString>
        <CharString name="u1D41B">
          -45 -14 32 401 54 183 20 hstem
          211 676 rmoveto
          -194 -24 hlineto
          46 -9 9 -9 0 -40 rrcurveto
          -607 12 vlineto
          79 56 rlineto
          46 -42 36 -15 50 0 rrcurveto
          134 92 103 150 139 -77 95 -111 hvcurveto
          -49 0 -35 -16 -38 -40 rrcurveto
          -57 vmoveto
          18 43 19 16 33 0 rrcurveto
          62 31 -66 -132 -139 -30 -64 -64 -42 -27 31 48 hvcurveto
          endchar
        </CharString>
        <CharString name="u1D41C">
          -157 -14 67 389 31 hstem
          412 109 rmoveto
          -37 -42 -29 -14 -41 0 rrcurveto
          -87 -52 84 136 109 35 60 49 42 0 -23 -47 -48 22 -25 34 42 26 25 39 64 -67 46 -87 -133 -104 -102 -149 -143 89 -93 125 hvcurveto
          80 0 56 30 55 75 rrcurveto
          endchar
        </CharString>
        <CharString name="u1D41D">
          -45 -14 56 -42 20 397 56 183 20 hstemhm
          hintmask 01110000
          534 20 rmoveto
          23 vlineto
          -46 3 -13 13 0 42 rrcurveto
          575 -215 -24 vlineto
          67 -5 9 -7 0 -46 rrcurveto
          -183 vlineto
          -43 46 -30 16 -46 0 rrcurveto
          -110 -82 -107 -145 hvcurveto
          hintmask 10000000
          -137 76 -98 105 vhcurveto
          53 0 33 16 47 50 rrcurveto
          -65 vlineto
          46 13 25 4 62 8 rrcurveto
          hintmask 10100000
          -136 100 rmoveto
          0 -5 -9 -15 -10 -13 -20 -25 -23 -12 -23 0 rrcurveto
          -53 -25 60 127 129 27 59 58 hvcurveto
          33 0 30 -24 15 -38 rrcurveto
          endchar
        </CharString>
        <CharString name="u1D41E">
          -157 -14 72 187 37 160 31 hstem
          403 126 rmoveto
          -41 -49 -31 -19 -43 0 -98 0 -15 92 -6 95 rrcurveto
          252 hlineto
          -4 74 -18 63 -37 41 -29 32 -41 18 -58 0 rrcurveto
          -125 -84 -100 -149 -137 83 -101 121 hvcurveto
          85 0 53 31 60 95 rrcurveto
          -129 170 rmoveto
          -134 hlineto
          120 24 40 46 vhcurveto
          29 0 12 -17 14 -30 9 -19 0 -21 0 -52 rrcurveto
          endchar
        </CharString>
        <CharString name="u1D41F">
          -268 0 20 397 44 199 31 hstem
          14 461 rmoveto
          -44 57 -330 vlineto
          0 -45 -11 -13 -46 -5 rrcurveto
          -24 278 24 vlineto
          -70 2 -12 16 0 65 rrcurveto
          310 86 44 -86 120 vlineto
          59 14 20 36 18 11 -7 -12 vhcurveto
          0 -14 -22 -8 0 -35 rrcurveto
          -31 26 -26 34 37 25 27 37 59 -58 41 -85 vhcurveto
          -64 0 -44 -18 -27 -33 -33 -40 -7 -60 0 -79 rrcurveto
          endchar
        </CharString>
        <CharString name="u1D420">
          -101 -206 32 571 53 -8 30 hstemhm
          28 88 288 79 hintmask 01011000
          254 68 rmoveto
          -80 -21 10 27 30 30 19 39 hvcurveto
          91 0 3 0 33 14 61 25 31 43 0 63 0 40 -12 33 -28 25 rrcurveto
          80 53 -129 hlineto
          hintmask 10111000
          -44 16 -28 6 -40 0 -119 0 -84 -62 0 -99 0 -76 53 -55 71 -20 -80 -23 -39 -35 0 -59 0 -37 18 -22 64 -23 -63 -9 -33 -25 0 -41 rrcurveto
          -60 68 -32 126 167 94 60 94 74 -69 46 -108 vhcurveto
          244 vmoveto
          -94 -18 -36 -48 -48 -18 36 93 98 18 33 47 48 19 -37 -93 vhcurveto
          9 -364 rmoveto
          65 24 -22 -34 -38 -55 -28 -99 -88 -46 23 44 hvcurveto
          0 21 7 11 28 23 rrcurveto
          endchar
        </CharString>
        <CharString name="u1D421">
          -45 0 20 386 67 183 20 hstem
          534 hmoveto
          24 vlineto
          -35 -14 17 46 hvcurveto
          250 vlineto
          79 -48 57 -82 vhcurveto
          -53 0 -45 -19 -49 -58 rrcurveto
          280 -193 -24 vlineto
          46 -9 8 -4 0 -48 rrcurveto
          -502 vlineto
          0 -56 -8 0 -45 -9 rrcurveto
          -24 240 24 vlineto
          -37 5 -11 15 0 41 rrcurveto
          263 vlineto
          0 4 7 10 10 10 22 22 24 12 24 0 rrcurveto
          39 12 -26 -71 hvcurveto
          -224 vlineto
          0 -41 -12 -16 -34 -4 rrcurveto
          -24 vlineto
          endchar
        </CharString>
        <CharString name="u1D422">
          -323 0 20 516 155 hstem
          60 155 vstem
          215 613 rmoveto
          43 -34 35 -42 -45 -34 -34 -44 -44 33 -33 44 44 34 33 44 vhcurveto
          41 -613 rmoveto
          -4 callsubr
          endchar
        </CharString>
        <CharString name="u1D423">
          -268 -203 31 708 155 hstem
          108 155 vstem
          263 613 rmoveto
          42 -35 36 -42 -44 -34 -34 -44 -44 32 -33 44 45 34 33 44 vhcurveto
          -3 -152 rmoveto
          -3 callsubr
          endchar
        </CharString>
        <CharString name="u1D424">
          -45 0 20 636 20 hstem
          543 hmoveto
          24 vlineto
          -11 0 -5 3 -9 12 rrcurveto
          -194 268 rlineto
          100 105 26 18 63 8 rrcurveto
          23 -214 -23 vlineto
          24 -4 rlineto
          26 -4 9 -6 0 -13 0 -9 -10 -18 -11 -11 rrcurveto
          -128 -128 0 431 -187 0 0 -24 rlineto
          34 -3 14 -17 0 -38 rrcurveto
          -510 vlineto
          0 -39 -15 -18 -33 -3 rrcurveto
          -24 239 24 vlineto
          -47 7 -5 6 0 47 rrcurveto
          0 114 23 24 95 -134 rlineto
          18 -25 6 -12 0 -8 0 -12 -14 -6 -28 -1 rrcurveto
          -24 vlineto
          endchar
        </CharString>
        <CharString name="u1D425">
          -323 0 20 636 20 hstem
          256 hmoveto
          24 vlineto
          -33 1 -17 16 0 46 rrcurveto
          589 -191 -24 vlineto
          35 -3 17 -25 0 -37 rrcurveto
          -500 vlineto
          0 -44 -17 -16 -34 -3 rrcurveto
          -24 vlineto
          endchar
        </CharString>
        <CharString name="u1D426">
          232 0 20 386 67 hstem
          814 hmoveto
          24 vlineto
          -39 2 -11 14 0 43 rrcurveto
          248 vlineto
          89 -53 53 -82 vhcurveto
          -57 0 -38 -23 -52 -64 -30 63 -35 24 -63 0 -64 0 -42 -26 -38 -61 rrcurveto
          -3 75 -192 -24 hlineto
          44 -6 12 -11 0 -47 rrcurveto
          -287 vlineto
          0 -41 -11 -13 -44 -8 rrcurveto
          -24 239 24 vlineto
          -35 5 -10 16 0 38 rrcurveto
          261 vlineto
          24 61 38 23 39 15 -23 -60 vhcurveto
          -240 vlineto
          0 -41 -10 -15 -37 -3 rrcurveto
          -24 232 24 vlineto
          -35 4 -11 17 0 38 rrcurveto
          265 vlineto
          0 5 14 18 13 10 21 18 19 7 18 0 rrcurveto
          38 15 -33 -62 hvcurveto
          -228 vlineto
          0 -42 -10 -14 -38 -3 rrcurveto
          -24 vlineto
          endchar
        </CharString>
        <CharString name="u1D427">
          -45 0 20 386 67 hstem
          539 hmoveto
          24 vlineto
          -39 3 -10 12 0 45 rrcurveto
          247 vlineto
          87 -53 55 -82 vhcurveto
          -60 0 -48 -27 -34 -60 rrcurveto
          -1 75 -191 -24 hlineto
          44 -7 9 -11 0 -43 rrcurveto
          -289 vlineto
          0 -42 -8 -12 -45 -9 rrcurveto
          -24 240 24 vlineto
          -37 5 -11 18 0 37 rrcurveto
          264 vlineto
          0 4 7 10 10 10 22 22 24 12 24 0 rrcurveto
          34 17 -29 -56 hvcurveto
          -237 vlineto
          0 -40 -12 -16 -34 -4 rrcurveto
          -24 vlineto
          endchar
        </CharString>
        <CharString name="u1D428">
          -101 -14 31 425 31 hstem
          476 229 rmoveto
          -2 callsubr
          -147 -11 rmoveto
          -1 callsubr
          endchar
        </CharString>
        <CharString name="u1D429">
          -45 -13 55 374 57 hstem
          212 461 rmoveto
          -192 -24 hlineto
          44 -7 11 -14 0 -44 rrcurveto
          -490 vlineto
          0 -42 -8 -13 -48 -8 rrcurveto
          -24 272 24 vlineto
          -61 3 -16 32 0 67 rrcurveto
          126 vlineto
          48 -47 25 -13 45 0 rrcurveto
          120 72 107 155 147 -70 77 -111 hvcurveto
          -59 0 -38 -21 -34 -60 rrcurveto
          2 -46 rmoveto
          0 6 7 14 11 13 20 24 25 13 23 0 rrcurveto
          51 25 -59 -123 -138 -30 -54 -55 hvcurveto
          -33 0 -29 27 -15 38 rrcurveto
          endchar
        </CharString>
        <CharString name="u1D42A">
          -45 -14 54 401 32 hstem
          536 -205 rmoveto
          24 vlineto
          -46 9 -9 9 0 40 rrcurveto
          595 -16 vlineto
          -77 -55 rlineto
          -51 43 -31 13 -50 0 rrcurveto
          -135 -87 -114 -140 -145 82 -88 103 hvcurveto
          48 0 40 11 35 45 rrcurveto
          -132 vlineto
          0 -66 -8 -16 -65 -9 rrcurveto
          -24 vlineto
          73 303 rmoveto
          -38 -35 -20 -34 -54 -39 60 136 142 39 63 56 40 27 -32 -55 vhcurveto
          endchar
        </CharString>
        <CharString name="u1D42B">
          -157 0 20 433 20 hstem
          218 461 rmoveto
          -190 -24 hlineto
          43 -6 12 -11 0 -47 rrcurveto
          -289 vlineto
          0 -41 -10 -11 -44 -8 rrcurveto
          -24 265 24 vlineto
          -61 4 -11 14 0 64 rrcurveto
          177 vlineto
          59 26 45 35 vhcurveto
          8 0 9 -5 11 -18 17 -28 17 -10 26 0 rrcurveto
          37 26 28 40 46 -34 33 -47 hvcurveto
          -50 0 -38 -26 -47 -68 rrcurveto
          endchar
        </CharString>
        <CharString name="u1D42C">
          -212 -14 34 411 20 -11 33 hstemhm
          hintmask 01000000
          340 326 rmoveto
          145 -22 vlineto
          -6 -15 -6 -5 -13 0 -6 0 -9 2 -16 5 rrcurveto
          hintmask 10100000
          -32 11 -23 4 -23 0 -91 0 -66 -62 0 -84 0 -66 41 -46 101 -43 69 -30 27 -25 0 -32 0 -39 -30 -26 -45 0 -70 0 -46 45 -21 87 rrcurveto
          -28 -165 25 hlineto
          11 21 6 7 9 0 5 0 8 -2 10 -4 29 -12 51 -11 28 0 91 0 63 62 0 90 0 71 -38 43 -100 42 -68 28 -28 26 0 34 rrcurveto
          33 28 25 38 vhcurveto
          27 0 26 -11 22 -21 21 -20 11 -19 15 -43 rrcurveto
          endchar
        </CharString>
        <CharString name="u1D42D">
          -268 -12 71 358 44 hstem
          307 112 rmoveto
          -20 -38 -16 -15 -21 0 rrcurveto
          -28 -11 20 40 hvcurveto
          298 95 44 -95 169 -25 vlineto
          -58 -84 -37 -53 -72 -49 rrcurveto
          -27 53 -322 vlineto
          -67 43 -40 69 vhcurveto
          67 0 40 31 41 82 rrcurveto
          endchar
        </CharString>
        <CharString name="u1D42E">
          -45 -14 65 -51 20 421 20 hstemhm
          hintmask 01100000
          538 20 rmoveto
          23 vlineto
          -44 2 -13 16 0 44 rrcurveto
          356 -200 -24 vlineto
          50 -4 11 -14 0 -45 rrcurveto
          -276 vlineto
          hintmask 10100000
          -31 -34 -22 -13 -29 0 rrcurveto
          -36 -20 20 56 hvcurveto
          334 -188 -24 vlineto
          41 -8 8 -11 0 -46 rrcurveto
          -241 vlineto
          -93 50 -52 83 vhcurveto
          55 0 38 17 52 49 rrcurveto
          -65 vlineto
          43 15 24 4 65 7 rrcurveto
          endchar
        </CharString>
        <CharString name="u1D42F">
          -101 -14 20 435 20 hstem
          485 461 rmoveto
          -151 -24 hlineto
          43 -2 12 -7 0 -24 0 -12 -3 -14 -8 -19 rrcurveto
          -72 -182 -79 203 rlineto
          -8 20 -1 4 0 7 0 15 10 6 25 3 rrcurveto
          18 2 0 24 -250 0 0 -24 rlineto
          22 -3 6 -3 6 -8 9 -12 37 -80 20 -49 rrcurveto
          120 -296 26 0 160 396 rlineto
          19 46 8 6 31 3 rrcurveto
          endchar
        </CharString>
        <CharString name="u1D430">
          121 -14 20 435 20 hstem
          707 461 rmoveto
          -135 -24 hlineto
          37 -4 11 -8 0 -23 0 -13 -15 -37 -29 -78 rrcurveto
          -35 -94 rlineto
          -10 42 -4 15 -20 70 -20 68 -7 28 0 10 0 16 10 5 38 3 rrcurveto
          24 -234 -24 vlineto
          39 -4 1 -1 19 -66 2 -7 2 -6 2 -6 rrcurveto
          -68 -171 -45 118 rlineto
          -27 71 -12 31 0 13 0 17 10 7 28 4 rrcurveto
          24 -222 -24 vlineto
          26 -5 6 -10 25 -62 rrcurveto
          148 -374 24 0 125 310 102 -310 23 0 155 401 rlineto
          13 34 11 11 26 5 rrcurveto
          endchar
        </CharString>
        <CharString name="u1D431">
          -101 0 20 421 20 hstem
          484 hmoveto
          24 vlineto
          -16 5 -7 4 -7 11 rrcurveto
          -148 228 101 126 rlineto
          19 23 20 11 31 5 rrcurveto
          24 -168 -24 vlineto
          20 -2 rlineto
          23 -2 8 -5 0 -15 0 -15 -11 -14 -27 -35 rrcurveto
          -36 -46 rlineto
          -4 6 -5 6 -4 5 -33 43 -25 42 0 13 0 12 14 6 33 1 rrcurveto
          24 -250 -24 vlineto
          26 -4 6 -5 20 -30 rrcurveto
          128 -197 rlineto
          -15 -18 8 9 -15 -19 -15 -19 -14 -18 -14 -19 -56 -75 -20 -16 -37 -2 rrcurveto
          -24 169 24 vlineto
          -36 2 -14 7 0 15 0 16 25 40 39 47 6 7 5 7 5 6 13 -21 14 -21 15 -21 24 -35 9 -17 0 -12 0 -12 -13 -6 -32 -2 rrcurveto
          -24 vlineto
          endchar
        </CharString>
        <CharString name="u1D432">
          -101 -205 57 589 20 hstem
          482 461 rmoveto
          -152 -24 hlineto
          43 -2 11 -7 0 -24 0 -12 -2 -11 -9 -26 rrcurveto
          -68 -188 -72 186 rlineto
          -11 28 -9 26 0 4 0 15 11 8 25 2 rrcurveto
          16 1 0 24 -249 0 0 -24 rlineto
          22 -3 6 -3 6 -8 9 -12 38 -84 20 -50 rrcurveto
          119 -290 -18 -53 rlineto
          -17 -50 -25 -32 -24 0 -9 0 -8 8 0 9 0 0 0 3 1 3 1 5 1 5 0 4 rrcurveto
          29 -26 23 -34 -38 -24 -29 -38 -47 40 -32 57 vhcurveto
          34 0 29 11 21 22 21 23 21 39 35 94 rrcurveto
          148 398 rlineto
          16 43 13 8 31 4 rrcurveto
          endchar
        </CharString>
        <CharString name="u1D433">
          -157 0 20 421 20 hstem
          420 160 rmoveto
          -28 hlineto
          -9 -32 -8 -16 -14 -21 -33 -46 -33 -13 -81 0 rrcurveto
          -29 0 231 403 0 26 -371 0 -7 -142 26 0 rlineto
          25 95 24 15 142 0 rrcurveto
          -234 -404 0 -25 383 0 rlineto
          endchar
        </CharString>
        <CharString name="u1D434">
          116 0 20 191 37 399 20 hstem
          685 hmoveto
          0 callsubr
          66 248 rmoveto
          1 callsubr
          endchar
        </CharString>
        <CharString name="u1D435">
          95 0 38 280 35 261 39 hstem
          198 653 rmoveto
          2 callsubr
          -44 -42 rmoveto
          3 callsubr
          -9 -45 rmoveto
          4 callsubr
          endchar
        </CharString>
        <CharString name="u1D436">
          70 -12 48 586 37 hstem
          711 659 rmoveto
          -18 hlineto
          -15 -25 -16 -2 -11 0 -52 0 -52 27 -54 0 rrcurveto
          -242 -201 -163 -230 -147 95 -131 193 hvcurveto
          39 0 76 6 78 55 29 21 33 30 27 41 rrcurveto
          -20 13 rlineto
          -5 -7 -5 -6 -7 -7 -45 -49 -73 -49 -98 0 rrcurveto
          -135 -60 102 112 171 118 201 201 121 31 -79 -65 hvcurveto
          0 -25 0 -9 -1 -8 rrcurveto
          16 hlineto
          endchar
        </CharString>
        <CharString name="u1D437">
          189 0 20 595 38 hstem
          194 653 rmoveto
          -5 -17 25 0 rlineto
          59 18 -15 -22 hvcurveto
          0 -7 -2 -9 -2 -8 rrcurveto
          -122 -497 rlineto
          -8 -34 -23 -28 -74 0 rrcurveto
          -18 0 -4 -16 306 0 rlineto
          258 163 167 211 172 -101 103 -188 hvcurveto
          -71 -41 rmoveto
          16 2 23 1 20 0 rrcurveto
          147 33 -137 -115 -141 -79 -184 -192 -35 -60 2 41 hvcurveto
          0 3 0 5 5 19 rrcurveto
          endchar
        </CharString>
        <CharString name="u1D438">
          113 0 38 295 36 248 36 hstem
          734 653 rmoveto
          5 callsubr
          endchar
        </CharString>
        <CharString name="u1D439">
          17 0 20 312 36 248 37 hstem
          723 653 rmoveto
          -520 0 -4 -15 19 0 rlineto
          60 16 -18 -21 hvcurveto
          0 -7 -2 -9 -2 -8 rrcurveto
          -124 -497 rlineto
          -9 -34 -21 -28 -76 0 rrcurveto
          -18 0 -4 -16 342 0 4 16 -32 0 rlineto
          -60 -19 16 25 hvcurveto
          0 7 3 8 1 6 rrcurveto
          62 254 97 0 rlineto
          29 41 -3 -47 hvcurveto
          0 -18 -2 -29 -3 -14 rrcurveto
          16 0 60 242 -16 0 rlineto
          -21 -85 -46 -10 -62 0 rrcurveto
          -83 0 62 248 147 0 rlineto
          47 0 60 -9 3 -78 0 -14 0 -14 -1 -8 rrcurveto
          16 hlineto
          endchar
        </CharString>
        <CharString name="u1D43A">
          133 -12 37 606 37 hstem
          734 329 rmoveto
          -313 0 -4 -16 19 0 rlineto
          61 14 -15 -22 hvcurveto
          0 -7 -1 -10 -2 -8 rrcurveto
          -57 -201 rlineto
          -27 -17 -29 -8 -41 0 rrcurveto
          -147 -34 97 82 179 89 248 229 113 47 -81 -73 hvcurveto
          0 -11 -1 -11 -1 -10 rrcurveto
          16 0 45 223 -16 0 rlineto
          -3 -16 -18 -21 -22 0 -22 0 -19 15 -22 6 -22 7 -32 9 -49 0 rrcurveto
          -253 -182 -216 -210 -179 135 -75 157 hvcurveto
          63 0 75 0 79 47 rrcurveto
          62 216 rlineto
          10 36 18 26 85 0 rrcurveto
          endchar
        </CharString>
        <CharString name="u1D43B">
          272 0 20 300 37 hstem
          923 653 rmoveto
          6 callsubr
          endchar
        </CharString>
        <CharString name="u1D43C">
          -121 0 20 hstem
          530 653 rmoveto
          7 callsubr
          endchar
        </CharString>
        <CharString name="u1D43D">
          -61 -12 37 hstem
          620 653 rmoveto
          -329 0 -4 -16 20 0 rlineto
          57 18 -15 -24 hvcurveto
          0 -8 -80 -325 -37 -144 -7 -27 -18 -69 -49 0 -11 0 -13 6 0 15 0 27 27 0 0 32 rrcurveto
          31 -33 20 -31 -50 -20 -34 -37 -60 57 -37 69 vhcurveto
          25 0 45 3 39 25 40 27 33 43 19 75 rrcurveto
          103 413 rlineto
          9 36 25 27 74 0 rrcurveto
          18 hlineto
          endchar
        </CharString>
        <CharString name="u1D43E">
          161 0 20 hstem
          802 653 rmoveto
          8 callsubr
          endchar
        </CharString>
        <CharString name="u1D43F">
          107 0 38 hstem
          668 190 rmoveto
          -16 hlineto
          -5 -14 -5 -12 -7 -11 -46 -93 -51 -22 -102 0 rrcurveto
          -122 hlineto
          -12 -28 2 22 hvcurveto
          0 2 1 14 4 15 rrcurveto
          122 481 rlineto
          9 37 21 26 75 0 rrcurveto
          18 0 4 16 -327 0 -4 -16 18 0 rlineto
          62 14 -18 -19 hvcurveto
          0 -9 -3 -20 -4 -16 rrcurveto
          -118 -477 rlineto
          -8 -34 -24 -28 -75 0 rrcurveto
          -17 0 -4 -16 569 0 rlineto
          endchar
        </CharString>
        <CharString name="u1D440">
          404 0 20 hstem
          1055 653 rmoveto
          9 callsubr
          endchar
        </CharString>
        <CharString name="u1D441">
          250 0 20 hstem
          901 653 rmoveto
          10 callsubr
          endchar
        </CharString>
        <CharString name="u1D442">
          131 -11 38 605 37 hstem
          712 420 rmoveto
          11 callsubr
          -116 23 rmoveto
          12 callsubr
          endchar
        </CharString>
        <CharString name="u1D443">
          -7 0 20 274 37 285 37 hstem
          201 653 rmoveto
          13 callsubr
          -61 -40 rmoveto
          14 callsubr
          endchar
        </CharString>
        <CharString name="u1D444">
          180 -152 64 718 37 hstem
          83 -115 rmoveto
          11 -12 rlineto
          27 13 23 5 8 0 30 0 54 -16 50 -11 37 -8 52 -8 53 0 118 0 70 46 59 73 rrcurveto
          -13 11 rlineto
          -50 -53 -47 -13 -39 0 -87 0 -93 34 -65 0 -13 0 -14 -1 -16 -3 rrcurveto
          -4 5 64 43 rlineto
          245 188 226 204 155 -93 92 -146 -254 -188 -241 -204 hvcurveto
          0 -132 83 -81 114 -17 rrcurveto
          365 475 rmoveto
          -157 -94 -283 -217 -80 -51 52 97 138 90 316 222 65 65 -31 -132 vhcurveto
          endchar
        </CharString>
        <CharString name="u1D445">
          139 0 20 293 36 267 37 hstem
          725 16 rmoveto
          -57 5 -26 42 -19 39 rrcurveto
          -115 229 rlineto
          107 21 71 67 0 83 rrcurveto
          85 -56 66 -160 vhcurveto
          -271 0 -4 -16 20 0 rlineto
          60 17 -16 -21 hvcurveto
          0 -8 -3 -9 -2 -8 rrcurveto
          -124 -497 rlineto
          -9 -34 -20 -28 -76 0 rrcurveto
          -16 0 -4 -16 325 0 4 16 -19 0 rlineto
          -58 -18 15 24 hvcurveto
          0 8 1 7 2 8 rrcurveto
          62 239 rlineto
          14 -2 10 -2 14 0 8 0 11 1 10 1 rrcurveto
          150 -315 169 0 rlineto
          -313 613 rmoveto
          11 2 9 1 14 0 rrcurveto
          63 62 -17 -108 -84 -58 -58 -133 hvcurveto
          -9 0 -10 1 -13 3 rrcurveto
          endchar
        </CharString>
        <CharString name="u1D446">
          49 -10 38 603 37 hstem
          680 668 rmoveto
          -16 hlineto
          -3 -15 -14 -22 -20 0 -43 0 -57 37 -83 0 -158 0 -65 -94 0 -81 0 -49 45 -54 28 -28 36 -35 48 -36 30 -31 28 -28 18 -33 0 -35 rrcurveto
          -65 -29 -71 -127 vhcurveto
          -131 0 -37 88 -3 79 0 10 -1 11 0 10 rrcurveto
          -16 0 -60 -236 16 0 rlineto
          16 27 14 11 25 0 76 0 31 -38 94 0 157 0 87 92 0 99 0 87 -59 58 -59 49 -56 48 -61 42 0 69 rrcurveto
          71 78 26 43 112 48 -76 -84 vhcurveto
          0 -8 0 -8 -1 -8 rrcurveto
          16 hlineto
          endchar
        </CharString>
        <CharString name="u1D447">
          -51 0 20 596 37 hstem
          670 653 rmoveto
          15 callsubr
          endchar
        </CharString>
        <CharString name="u1D448">
          104 -13 47 hstem
          775 653 rmoveto
          -263 0 -4 -16 19 0 rlineto
          58 0 16 -14 1 -23 0 -11 -2 -8 -2 -7 rrcurveto
          -86 -351 rlineto
          -26 -108 -58 -81 -111 0 -97 0 -47 58 0 54 0 17 3 36 4 15 rrcurveto
          90 360 rlineto
          9 36 18 27 79 0 rrcurveto
          17 0 4 16 -328 0 -4 -16 18 0 rlineto
          54 21 -11 -20 hvcurveto
          0 -2 0 -3 -1 -2 rrcurveto
          -76 -330 rlineto
          -2 -9 -12 -78 0 -8 0 -91 62 -96 160 0 190 0 56 125 26 106 rrcurveto
          87 356 rlineto
          9 36 23 27 75 0 rrcurveto
          16 hlineto
          endchar
        </CharString>
        <CharString name="u1D449">
          -26 -16 20 hstem
          760 653 rmoveto
          -241 0 -4 -16 20 0 rlineto
          38 14 -7 -15 hvcurveto
          0 -21 -19 -29 -19 -24 rrcurveto
          -280 -366 -4 1 0 391 rlineto
          33 5 37 65 vhcurveto
          19 0 4 16 -294 0 -4 -16 rlineto
          61 38 -24 -58 hvcurveto
          -571 24 vlineto
          441 576 rlineto
          26 34 41 39 65 4 rrcurveto
          endchar
        </CharString>
        <CharString name="u1D44A">
          315 -16 20 hstem
          1101 653 rmoveto
          -242 0 -4 -16 17 0 rlineto
          41 13 -9 -16 hvcurveto
          0 -19 -23 -31 -17 -22 rrcurveto
          -278 -370 -6 0 0 395 rlineto
          35 9 37 62 vhcurveto
          18 0 4 16 -285 0 -4 -16 8 0 rlineto
          63 19 -24 -31 hvcurveto
          0 -61 -226 -332 -5 0 0 377 rlineto
          71 37 0 39 vhcurveto
          7 0 4 16 -288 0 -4 -16 10 0 rlineto
          56 33 -29 -55 hvcurveto
          -569 29 vlineto
          297 442 11 0 0 -442 29 0 438 576 rlineto
          25 33 43 41 66 3 rrcurveto
          endchar
        </CharString>
        <CharString name="u1D44B">
          189 0 20 hstem
          810 653 rmoveto
          16 callsubr
          endchar
        </CharString>
        <CharString name="u1D44C">
          -66 0 20 hstem
          695 653 rmoveto
          -237 0 -4 -16 rlineto
          58 21 -9 -19 hvcurveto
          0 -11 -4 -8 -12 -15 rrcurveto
          -174 -212 -4 0 -75 207 rlineto
          -2 7 -5 11 0 9 rrcurveto
          25 8 15 50 vhcurveto
          19 0 4 16 -299 0 -4 -16 rlineto
          77 0 29 -31 17 -45 rrcurveto
          89 -237 -61 -246 rlineto
          -8 -34 -20 -28 -77 0 rrcurveto
          -17 0 -4 -16 328 0 4 16 -20 0 rlineto
          -58 -18 15 21 hvcurveto
          0 11 1 6 2 9 rrcurveto
          59 234 209 256 rlineto
          31 38 38 27 55 4 rrcurveto
          endchar
        </CharString>
        <CharString name="u1D44D">
          171 0 38 578 37 hstem
          802 653 rmoveto
          17 callsubr
          endchar
        </CharString>
        <CharString name="u1D44E">
          -99 -10 61 361 29 hstem
          40 87 vstem
          472 428 rmoveto
          -80 0 -9 -33 -1 0 rlineto
          -2 22 -21 24 -43 0 rrcurveto
          -144 -132 -200 -132 -64 26 -55 63 hvcurveto
          39 0 62 13 72 92 rrcurveto
          4 hlineto
          -5 -16 -6 -21 0 -13 0 -32 9 -23 33 0 48 0 54 60 31 47 rrcurveto
          -12 12 rlineto
          -39 -52 -15 -2 -10 0 rrcurveto
          -8 -6 6 11 9 1 2 0 hvcurveto
          -14 258 rmoveto
          0 -34 -7 -40 -8 -26 -28 -95 -70 -95 -69 0 -27 0 -31 13 0 53 0 35 10 44 18 45 34 84 60 87 68 0 38 0 12 -30 0 -41 rrcurveto
          endchar
        </CharString>
        <CharString name="u1D44F">
          -131 -11 29 368 55 207 20 hstem
          367 83 vstem
          214 382 rmoveto
          73 286 -158 -24 3 -16 rlineto
          8 3 12 1 10 0 13 0 15 -8 1 -13 0 -3 -1 -4 -1 -4 rrcurveto
          -144 -563 rlineto
          45 -30 41 -18 53 0 rrcurveto
          157 109 180 121 82 -41 69 -70 hvcurveto
          -49 0 -39 -31 -33 -32 rrcurveto
          -39 -126 rmoveto
          11 45 34 89 72 0 rrcurveto
          33 38 -22 -70 -102 -66 -174 -122 -23 -32 12 7 hvcurveto
          endchar
        </CharString>
        <CharString name="u1D450">
          -186 -11 55 368 29 hstem
          40 87 210 63 vstem
          363 111 rmoveto
          -35 -34 -46 -33 -61 0 rrcurveto
          -45 -49 22 87 80 57 179 119 24 10 -9 -12 hvcurveto
          0 -22 -29 -12 0 -24 rrcurveto
          -17 12 -21 26 38 16 32 38 49 -47 27 -50 -142 -121 -157 -140 -77 40 -78 97 vhcurveto
          85 0 62 49 51 60 rrcurveto
          endchar
        </CharString>
        <CharString name="u1D451">
          -69 -12 61 362 30 207 20 hstem
          40 87 vstem
          527 668 rmoveto
          -156 -24 4 -15 rlineto
          7 1 11 2 9 0 26 0 7 -7 0 -13 0 -4 -1 -4 -1 -4 rrcurveto
          -53 -209 -2 0 rlineto
          -1 24 -23 26 -57 0 rrcurveto
          -154 -103 -223 -103 -53 15 -74 73 hvcurveto
          37 0 60 12 74 93 rrcurveto
          5 hlineto
          -8 -30 -2 -14 0 -20 0 -18 8 -23 32 0 47 0 53 60 30 45 rrcurveto
          -11 12 rlineto
          -14 -21 -28 -35 -20 0 -10 0 -5 3 0 6 0 3 1 6 1 3 rrcurveto
          -15 270 rmoveto
          0 -31 -5 -39 -11 -35 -28 -92 -66 -94 -70 0 rrcurveto
          -28 -28 17 49 96 81 200 99 41 15 -24 -47 hvcurveto
          endchar
        </CharString>
        <CharString name="u1D452">
          -156 -11 59 363 30 hstem
          331 79 vstem
          363 112 rmoveto
          -36 -46 -48 -18 -42 0 rrcurveto
          -61 -52 43 64 hvcurveto
          28 vlineto
          119 6 167 49 0 127 0 62 -60 14 -42 0 -127 0 -110 -125 -25 -111 -5 -23 -1 -14 0 -23 0 -72 39 -84 98 0 62 0 68 24 70 86 rrcurveto
          -253 112 rmoveto
          29 85 60 115 74 0 rrcurveto
          25 19 -18 -25 -88 -94 -69 -104 hvcurveto
          endchar
        </CharString>
        <CharString name="u1D453">
          -46 -187 29 557 38 202 29 hstem
          40 64 444 67 vstem
          248 437 rmoveto
          -9 -38 77 0 -87 -342 rlineto
          -15 -57 -30 -158 -65 0 -9 0 -6 3 0 6 0 12 16 1 0 19 rrcurveto
          15 -10 18 -27 -29 -14 -25 -24 -30 24 -24 48 vhcurveto
          88 0 54 95 33 83 15 37 8 38 7 27 rrcurveto
          79 306 76 0 12 38 -80 0 19 70 rlineto
          21 78 39 54 50 0 12 0 3 -3 0 -5 0 -8 -9 -15 0 -14 rrcurveto
          -14 7 -11 28 20 21 12 28 35 -29 24 -50 vhcurveto
          -76 0 -43 -43 -31 -47 -43 -64 5 -77 -63 0 rrcurveto
          endchar
        </CharString>
        <CharString name="u1D454">
          -109 -187 28 527 45 -2 30 hstemhm
          20 63 21 80 -71 73 150 79 -66 70 hintmask 01001000
          492 413 rmoveto
          -126 hlineto
          hintmask 10101000
          -15 15 -31 13 -42 0 -106 0 -68 -79 0 -79 0 -47 27 -47 67 -15 rrcurveto
          -4 vlineto
          hintmask 10110101
          -48 -37 -49 -38 hvcurveto
          0 -17 7 -19 17 -11 -62 -20 -55 -30 0 -58 rrcurveto
          -58 50 -57 134 149 66 80 71 vhcurveto
          0 125 -233 -40 0 63 0 25 29 25 59 8 rrcurveto
          hintmask 01001010
          88 11 53 62 0 75 0 22 -4 13 -13 15 rrcurveto
          81 hlineto
          -143 -19 rmoveto
          -56 -25 -102 -71 -44 -12 35 46 vhcurveto
          hintmask 10101010
          68 44 71 54 44 10 -25 -37 vhcurveto
          hintmask 10110001
          13 -418 rmoveto
          -44 -36 -46 -91 -95 -44 50 47 vhcurveto
          0 27 22 26 26 19 8 6 10 5 8 5 rrcurveto
          60 -22 132 5 0 -78 rrcurveto
          endchar
        </CharString>
        <CharString name="u1D456">
          -290 -11 20 511 96 hstem
          50 84 27 96 vstem
          257 566 rmoveto
          18 callsubr
          -30 -125 rmoveto
          -158 -22 3 -16 rlineto
          7 2 12 2 9 0 23 0 8 -5 0 -17 0 -3 -1 -7 -1 -2 -79 -307 0 -19 0 -12 0 -27 12 -19 28 0 49 0 50 60 35 45 rrcurveto
          -13 10 rlineto
          -36 -39 -6 -12 -22 0 -7 0 -6 3 0 7 0 4 0 4 1 6 rrcurveto
          endchar
        </CharString>
        <CharString name="u1D457">
          -212 -187 31 676 96 hstem
          -16 66 226 96 vstem
          372 566 rmoveto
          18 callsubr
          -21 -125 rmoveto
          -158 -28 3 -17 rlineto
          7 3 12 2 8 0 rrcurveto
          22 10 -10 -12 hvcurveto
          -92 -363 rlineto
          -24 -96 -33 -76 -46 0 -5 0 -5 6 0 4 0 16 16 3 0 15 rrcurveto
          23 -16 15 -19 -35 -12 -30 -22 -28 20 -33 53 vhcurveto
          108 0 56 115 22 88 rrcurveto
          endchar
        </CharString>
        <CharString name="u1D458">
          -59 -11 66 -55 20 628 20 hstemhm
          hintmask 01100000
          527 428 rmoveto
          -194 0 -4 -12 12 0 rlineto
          10 16 -7 -12 hvcurveto
          0 -13 -10 -13 -11 -10 rrcurveto
          -167 -149 113 456 -158 -25 3 -14 rlineto
          8 2 10 0 9 0 22 0 10 -11 0 -11 0 -7 -1 -7 -2 -6 rrcurveto
          -148 -589 76 0 45 166 56 49 63 -147 rlineto
          hintmask 10000000
          11 -26 21 -53 46 0 68 0 47 107 12 21 rrcurveto
          -15 11 rlineto
          -22 -30 -22 -43 -30 0 -26 0 -12 24 -15 35 rrcurveto
          -64 152 106 92 rlineto
          38 33 28 18 67 7 rrcurveto
          endchar
        </CharString>
        <CharString name="u1D459">
          -283 -10 63 595 20 hstem
          278 668 rmoveto
          -157 -23 3 -15 rlineto
          8 1 12 2 7 0 23 0 8 -10 0 -12 0 -3 0 -8 -3 -13 rrcurveto
          -128 -510 rlineto
          -3 -10 -3 -14 0 -12 0 -25 9 -26 30 0 58 0 43 66 34 40 rrcurveto
          -16 12 rlineto
          -9 -16 -30 -39 -23 0 rrcurveto
          -8 -4 6 7 7 1 4 0 hvcurveto
          endchar
        </CharString>
        <CharString name="u1D45A">
          109 -8 20 -12 20 357 64 hstemhm
          344 85 149 82 hintmask 01111000
          667 107 rmoveto
          -19 -37 -26 -16 -17 0 -9 0 -6 4 0 8 0 3 1 6 1 3 rrcurveto
          61 231 rlineto
          6 24 1 19 0 18 0 45 -18 26 -36 0 -20 0 -19 -7 -22 -15 -49 -33 -52 -62 -29 -52 rrcurveto
          -5 0 10 36 rlineto
          6 20 3 15 0 17 0 44 -18 37 -37 0 -38 0 -60 -26 -94 -143 rrcurveto
          -6 0 44 169 -157 -24 2 -14 rlineto
          8 1 11 1 8 0 rrcurveto
          27 6 -13 -18 hvcurveto
          -95 -374 78 0 35 135 rlineto
          16 61 110 181 52 0 18 0 5 -18 0 -20 0 -15 -3 -16 -2 -9 rrcurveto
          -77 -299 79 0 34 135 rlineto
          15 61 110 181 54 0 18 0 6 -18 0 -20 0 -17 -2 -9 -4 -14 rrcurveto
          -56 -221 rlineto
          -5 -20 -1 -10 0 -7 rrcurveto
          hintmask 10011000
          -39 17 -10 22 vhcurveto
          47 0 52 50 32 54 rrcurveto
          endchar
        </CharString>
        <CharString name="u1D45B">
          -104 -8 62 -54 20 359 62 hstemhm
          364 84 hintmask 10110000
          467 96 rmoveto
          -13 11 rlineto
          -14 -17 -24 -36 -24 0 -11 0 -3 8 -1 6 0 5 0 3 1 2 rrcurveto
          59 231 rlineto
          5 20 6 25 0 25 0 33 -12 29 -44 0 -60 0 -60 -66 -40 -50 -2 -3 -49 -70 -5 0 rrcurveto
          -3 0 51 189 -159 -23 2 -15 rlineto
          7 1 11 2 10 0 rrcurveto
          27 3 -14 -18 hvcurveto
          hintmask 01110000
          -95 -374 77 0 33 124 rlineto
          6 21 26 47 36 54 31 47 63 86 38 0 18 0 6 -19 0 -19 0 -14 -5 -20 -2 -8 rrcurveto
          -57 -221 rlineto
          -3 -11 -4 -16 0 -13 rrcurveto
          hintmask 10010000
          -23 9 -23 32 vhcurveto
          52 0 48 64 28 34 rrcurveto
          endchar
        </CharString>
        <CharString name="u1D45C">
          -143 -11 30 392 30 hstem
          40 81 236 81 vstem
          438 287 rmoveto
          19 callsubr
          -81 31 rmoveto
          20 callsubr
          endchar
        </CharString>
        <CharString name="u1D45D">
          -112 -12 29 368 56 hstem
          390 84 vstem
          253 370 rmoveto
          -3 2 18 69 -158 -24 2 -16 rlineto
          8 2 12 2 8 0 rrcurveto
          30 1 -14 -19 hvcurveto
          -117 -464 rlineto
          -12 -46 -7 -30 -62 -3 rrcurveto
          -3 -12 234 0 3 12 -16 0 rlineto
          -50 -11 21 22 hvcurveto
          0 11 2 11 3 13 rrcurveto
          24 100 rlineto
          19 -15 18 -4 24 0 rrcurveto
          144 110 169 129 101 -33 54 -61 hvcurveto
          -35 0 -39 -21 -39 -37 rrcurveto
          -53 -145 rmoveto
          20 86 52 61 53 0 rrcurveto
          23 28 -20 -63 -112 -75 -173 -101 hvcurveto
          -12 0 -20 5 -14 16 rrcurveto
          endchar
        </CharString>
        <CharString name="u1D45E">
          -143 -12 61 363 29 hstem
          40 85 vstem
          463 428 rmoveto
          -81 0 -7 -39 -3 0 rlineto
          -2 26 -22 26 -48 0 -28 0 -32 -13 -31 -21 -89 -58 -80 -123 0 -123 0 -57 25 -58 64 0 36 0 60 10 67 93 rrcurveto
          6 0 -44 -184 rlineto
          -9 -37 -16 -41 -68 0 rrcurveto
          -19 0 -3 -12 250 0 3 12 -14 0 rlineto
          -30 -19 18 30 hvcurveto
          0 9 0 10 3 10 rrcurveto
          26 432 rmoveto
          0 -113 -60 -114 -63 -45 -18 -13 -23 -4 -17 0 -43 0 -9 36 0 27 0 88 59 133 64 52 20 16 20 11 21 0 36 0 13 -31 0 -43 rrcurveto
          endchar
        </CharString>
        <CharString name="u1D45F">
          -193 0 20 hstem
          175 267 rmoveto
          46 174 -157 -23 2 -15 rlineto
          6 1 14 2 7 0 22 0 11 -6 0 -13 0 -5 -1 -7 -3 -11 rrcurveto
          -92 -364 77 0 21 76 rlineto
          5 17 87 256 61 0 18 0 -10 -38 39 0 rrcurveto
          41 24 44 38 27 -15 21 -29 hvcurveto
          -55 0 -48 -65 -34 -54 -11 -18 -12 -20 -9 -18 rrcurveto
          endchar
        </CharString>
        <CharString name="u1D460">
          -161 -11 20 -19 25 400 26 hstemhm
          138 70 60 74 hintmask 01111000
          390 441 rmoveto
          -16 hlineto
          -8 -10 -11 -10 -11 0 -29 0 -20 20 -43 0 -55 0 -59 -28 0 -79 0 -98 130 -50 0 -82 rrcurveto
          -39 -14 -50 -59 -63 -41 67 63 vhcurveto
          -16 0 rlineto
          hintmask 10011000
          -25 -156 17 0 rlineto
          12 17 9 4 9 0 rrcurveto
          hintmask 01111000
          12 0 64 -20 34 0 87 0 48 63 0 62 0 95 -134 92 0 55 rrcurveto
          41 26 17 25 56 36 -56 -64 vhcurveto
          15 hlineto
          endchar
        </CharString>
        <CharString name="u1D461">
          -288 -9 66 343 38 hstem
          283 438 rmoveto
          -70 0 31 129 -13 0 rlineto
          -41 -87 -61 -37 -75 -14 rrcurveto
          -5 -29 77 0 -81 -320 rlineto
          -3 -11 -2 -13 0 -13 0 -27 8 -25 31 0 59 0 50 76 24 31 rrcurveto
          -13 11 rlineto
          -37 -50 -23 -2 0 0 -13 0 -3 6 0 6 0 3 1 5 1 3 rrcurveto
          78 320 70 0 rlineto
          endchar
        </CharString>
        <CharString name="u1D462">
          -127 -9 66 hstem
          30 81 vstem
          444 428 rmoveto
          -77 0 -21 -75 rlineto
          -20 -73 -46 -89 -43 -57 -35 -46 -40 -31 -25 0 -18 0 -8 13 0 21 0 8 1 7 2 9 rrcurveto
          84 326 -157 -26 3 -15 rlineto
          7 2 12 1 7 0 22 0 11 -11 0 -12 0 -4 -2 -6 -4 -15 rrcurveto
          -59 -231 rlineto
          -5 -19 -3 -19 0 -21 0 -38 14 -36 47 0 23 0 26 11 23 17 40 30 90 121 7 5 rrcurveto
          1 0 -26 -95 rlineto
          -3 -12 -1 -16 0 -9 0 -33 11 -19 29 0 58 0 51 74 23 33 rrcurveto
          -13 11 -5 -6 rlineto
          -17 -20 -19 -26 -21 0 -10 0 -4 6 0 8 0 3 0 2 1 4 rrcurveto
          endchar
        </CharString>
        <CharString name="u1D463">
          -95 -9 39 408 20 hstem
          72 82 285 40 vstem
          247 454 rmoveto
          -4 4 rlineto
          -50 -22 -54 -7 -52 -13 rrcurveto
          -15 vlineto
          13 44 0 -20 hvcurveto
          0 -8 -3 -9 -2 -8 rrcurveto
          -58 -210 rlineto
          -6 -20 -3 -21 0 -21 0 -73 52 -20 64 0 74 0 77 44 43 60 58 80 39 101 0 99 rrcurveto
          32 -5 51 -42 -29 -25 -8 -34 vhcurveto
          0 -44 61 9 0 -74 0 -25 -7 -25 -8 -24 -32 -90 -70 -113 -108 0 -40 0 -20 28 0 38 0 11 1 11 3 10 rrcurveto
          endchar
        </CharString>
        <CharString name="u1D464">
          174 -9 39 400 20 -12 20 -18 20 hstemhm
          72 84 205 78 269 40 hintmask 11001110
          531 450 rmoveto
          -84 hlineto
          -31 -110 -26 -78 -53 -81 -24 -37 -71 -113 -58 -1 -22 0 -6 21 0 26 0 28 8 32 3 13 rrcurveto
          81 307 rlineto
          hintmask 10011110
          -4 3 rlineto
          -50 -21 -52 -14 -53 -9 rrcurveto
          -15 vlineto
          16 38 2 -24 hvcurveto
          0 -10 -2 -10 -3 -9 rrcurveto
          -47 -177 rlineto
          -8 -31 -11 -31 0 -33 0 -53 22 -34 56 0 112 0 82 136 40 89 -11 -40 -12 -43 0 -42 rrcurveto
          -72 42 -28 69 171 105 238 146 vhcurveto
          hintmask 10101110
          32 -5 51 -42 vhcurveto
          -24 0 -32 -6 2 -36 2 -43 59 8 0 -74 0 -25 -7 -25 -8 -24 -31 -88 -56 -115 -108 0 -40 0 -19 22 0 39 0 24 6 23 6 23 rrcurveto
          endchar
        </CharString>
        <CharString name="u1D465">
          -51 -9 64 320 66 hstem
          305 288 rmoveto
          -20 55 rlineto
          -12 33 -19 41 -44 24 rrcurveto
          -132 -33 3 -18 rlineto
          10 4 15 2 13 0 55 0 26 -41 17 -48 rrcurveto
          33 -92 -65 -101 rlineto
          -32 -49 -26 -10 -12 0 -25 0 4 20 -26 0 rrcurveto
          -25 -13 -21 -16 -22 16 -25 36 hvcurveto
          56 0 29 43 32 49 rrcurveto
          63 98 40 -113 rlineto
          13 -36 19 -41 41 0 58 0 45 96 12 15 rrcurveto
          -14 10 rlineto
          -21 -43 -24 -14 -16 0 -45 0 -23 135 -30 62 rrcurveto
          55 85 rlineto
          14 22 11 16 30 0 17 0 5 -9 22 0 rrcurveto
          26 13 23 19 21 -17 12 -32 hvcurveto
          -50 0 -35 -44 -26 -40 rrcurveto
          endchar
        </CharString>
        <CharString name="u1D466">
          -105 -183 65 hstem
          444 52 vstem
          270 307 rmoveto
          -9 74 -7 26 -23 33 rrcurveto
          -150 -25 2 -16 rlineto
          9 1 16 3 11 0 56 0 9 -60 5 -45 rrcurveto
          38 -314 rlineto
          -26 -40 -57 -62 -17 0 -16 0 2 31 -43 0 rrcurveto
          -13 -27 -11 -30 -24 19 -31 37 hvcurveto
          68 0 65 98 73 92 42 53 162 240 0 78 rrcurveto
          39 -25 23 -32 -29 -18 -18 -22 vhcurveto
          0 -38 52 -10 0 -21 0 -18 -8 -20 -20 -37 -22 -41 -35 -60 -61 -83 rrcurveto
          endchar
        </CharString>
        <CharString name="u1D467">
          -102 -14 22 -8 20 -6 80 276 80 hstemhm
          382 66 hintmask 01011000
          467 450 rmoveto
          -314 0 -36 -137 18 -4 rlineto
          23 55 24 6 57 0 rrcurveto
          131 hlineto
          -107 -125 -112 -122 -109 -123 rrcurveto
          11 -10 rlineto
          hintmask 00101000
          37 16 45 8 40 0 rrcurveto
          hintmask 01001000
          33 0 34 -5 32 -9 rrcurveto
          hintmask 10111000
          21 -5 25 -9 22 0 rrcurveto
          46 60 26 54 24 -15 18 -25 -19 -19 -19 -19 hvcurveto
          0 -22 12 -3 0 -13 0 -16 -12 -8 -15 0 -45 0 -3 86 -92 0 -23 0 -25 -7 -19 -14 rrcurveto
          -3 1 rlineto
          107 120 107 120 108 120 rrcurveto
          endchar
        </CharString>
        <CharString name="uni0300">
          -601 658 20 hstem
          -147 507 rmoveto
          -56 callsubr
          endchar
        </CharString>
        <CharString name="uni0301">
          -601 658 20 hstem
          -371 507 rmoveto
          -29 callsubr
          endchar
        </CharString>
        <CharString name="uni0302">
          -601 654 20 hstem
          -75 507 rmoveto
          -52 callsubr
          endchar
        </CharString>
        <CharString name="uni0302.size1">
          -41 560 554 rmoveto
          -256 213 -48 0 -256 -213 64 0 216 146 216 -146 rlineto
          endchar
        </CharString>
        <CharString name="uni0302.size2">
          378 979 564 rmoveto
          -465 213 -48 0 -466 -213 99 0 391 145 390 -145 rlineto
          endchar
        </CharString>
        <CharString name="uni0302.size3">
          859 1460 564 rmoveto
          -706 213 -48 0 -706 -213 153 0 577 145 577 -145 rlineto
          endchar
        </CharString>
        <CharString name="uni0302.size4">
          1285 1886 599 rmoveto
          -943 197 -943 -197 5 -26 937 161 939 -161 rlineto
          endchar
        </CharString>
        <CharString name="uni0302.size5">
          1727 2328 603 rmoveto
          -1164 213 -1164 -213 5 -31 1158 182 1160 -182 rlineto
          endchar
        </CharString>
        <CharString name="uni0303">
          -601 532 55 -9 55 hstemhm
          hintmask 10000000
          -94 638 rmoveto
          -31 callsubr
          hintmask 01000000
          -50 callsubr
          hintmask 10000000
          -49 callsubr
          hintmask 01000000
          -30 callsubr
          hintmask 10000000
          -47 callsubr
          endchar
        </CharString>
        <CharString name="uni0303.size1">
          -41 598 59 32 61 hstem
          535 750 rmoveto
          21 callsubr
          endchar
        </CharString>
        <CharString name="uni0303.size2">
          378 608 59 32 61 hstem
          953 760 rmoveto
          24 callsubr
          endchar
        </CharString>
        <CharString name="uni0303.size3">
          859 608 64 35 67 hstem
          1434 774 rmoveto
          26 callsubr
          endchar
        </CharString>
        <CharString name="uni0303.size4">
          1285 608 66 31 66 hstem
          1857 771 rmoveto
          28 callsubr
          endchar
        </CharString>
        <CharString name="uni0303.size5">
          1727 617 66 31 66 hstem
          2299 780 rmoveto
          30 callsubr
          endchar
        </CharString>
        <CharString name="uni0304">
          -601 547 54 hstem
          -74 547 rmoveto
          -54 callsubr
          endchar
        </CharString>
        <CharString name="uni0305">
          -601 770 50 hstem
          20 770 rmoveto
          -57 callsubr
          endchar
        </CharString>
        <CharString name="uni0305.size1">
          399 770 50 hstem
          1000 770 rmoveto
          50 -1000 -50 vlineto
          endchar
        </CharString>
        <CharString name="uni0305.size2">
          899 770 50 hstem
          1500 770 rmoveto
          23 callsubr
          endchar
        </CharString>
        <CharString name="uni0305.size3">
          1399 770 50 hstem
          2000 770 rmoveto
          25 callsubr
          endchar
        </CharString>
        <CharString name="uni0305.size4">
          1899 770 50 hstem
          2500 770 rmoveto
          27 callsubr
          endchar
        </CharString>
        <CharString name="uni0305.size5">
          2399 770 50 hstem
          3000 770 rmoveto
          29 callsubr
          endchar
        </CharString>
        <CharString name="uni0306">
          -601 507 60 77 20 hstem
          -121 664 rmoveto
          -44 callsubr
          endchar
        </CharString>
        <CharString name="uni0307">
          -601 523 99 hstem
          -280 99 vstem
          -181 572 rmoveto
          -43 callsubr
          endchar
        </CharString>
        <CharString name="uni0308">
          -601 523 99 hstem
          -379 99 100 99 vstem
          -81 572 rmoveto
          -55 callsubr
          -199 hmoveto
          -55 callsubr
          endchar
        </CharString>
        <CharString name="uni0309">
          -601 644 20 64 23 hstem
          -173 55 vstem
          -261 581 rmoveto
          -89 33 vlineto
          2 35 8 0 rlineto
          54 46 50 66 53 -21 55 -83 hvcurveto
          -23 0 -23 -7 -15 -11 -16 -11 -8 -19 0 -11 0 -14 11 -14 17 0 37 0 -19 64 43 0 rrcurveto
          31 14 -40 -37 -40 -32 -30 -44 hvcurveto
          endchar
        </CharString>
        <CharString name="uni030A">
          -601 512 34 131 34 hstem
          -329 34 131 34 vstem
          -130 611 rmoveto
          -46 callsubr
          -34 1 rmoveto
          -45 callsubr
          endchar
        </CharString>
        <CharString name="uni030B">
          -601 658 20 hstem
          -245 507 rmoveto
          -41 callsubr
          -302 -148 rmoveto
          -41 callsubr
          endchar
        </CharString>
        <CharString name="uni030C">
          -601 654 20 hstem
          -74 674 rmoveto
          -42 callsubr
          endchar
        </CharString>
        <CharString name="uni030C.size1">
          -41 560 767 rmoveto
          -64 0 -216 -146 -216 146 -64 0 256 -213 48 0 rlineto
          endchar
        </CharString>
        <CharString name="uni030C.size2">
          378 979 777 rmoveto
          -99 0 -390 -145 -391 145 -99 0 466 -213 48 0 rlineto
          endchar
        </CharString>
        <CharString name="uni030C.size3">
          859 1460 777 rmoveto
          -153 0 -577 -145 -577 145 -153 0 706 -213 48 0 rlineto
          endchar
        </CharString>
        <CharString name="uni030C.size4">
          1285 1886 770 rmoveto
          -5 26 -939 -161 -937 161 -5 -26 943 -197 rlineto
          endchar
        </CharString>
        <CharString name="uni030C.size5">
          1727 2328 785 rmoveto
          -5 31 -1160 -182 -1158 182 -5 -31 1164 -213 rlineto
          endchar
        </CharString>
        <CharString name="uni030D">
          -601 -250 55 vstem
          -195 500 rmoveto
          200 -55 -200 vlineto
          endchar
        </CharString>
        <CharString name="uni030E">
          -601 -326 54 84 55 vstem
          -133 500 rmoveto
          200 -55 -200 vlineto
          -84 hmoveto
          200 -54 -200 vlineto
          endchar
        </CharString>
        <CharString name="uni030F">
          -601 658 20 hstem
          -22 507 rmoveto
          -28 callsubr
          -116 hmoveto
          -28 callsubr
          endchar
        </CharString>
        <CharString name="uni0310">
          -601 507 60 101 99 hstem
          -280 99 vstem
          -181 717 rmoveto
          -43 callsubr
          60 -53 rmoveto
          -44 callsubr
          endchar
        </CharString>
        <CharString name="uni0311">
          -601 604 60 hstem
          -92 507 rmoveto
          -27 callsubr
          endchar
        </CharString>
        <CharString name="uni0312">
          -601 -299 39 vstem
          -187 745 rmoveto
          -40 callsubr
          endchar
        </CharString>
        <CharString name="uni0313">
          -601 -199 39 vstem
          -272 502 rmoveto
          -39 callsubr
          endchar
        </CharString>
        <CharString name="uni0314">
          -601 -299 39 vstem
          -178 521 rmoveto
          -38 callsubr
          endchar
        </CharString>
        <CharString name="uni0315">
          -601 15 39 vstem
          -58 502 rmoveto
          -39 callsubr
          endchar
        </CharString>
        <CharString name="uni0316">
          -601 -127 -224 rmoveto
          -56 callsubr
          endchar
        </CharString>
        <CharString name="uni0317">
          -601 -371 -224 rmoveto
          -29 callsubr
          endchar
        </CharString>
        <CharString name="uni0318">
          -601 -188 40 hstem
          -250 40 vstem
          -210 -283 rmoveto
          230 -40 -95 -147 -40 147 -95 vlineto
          endchar
        </CharString>
        <CharString name="uni0319">
          -601 -188 40 hstem
          -267 40 vstem
          -80 -188 rmoveto
          40 -147 95 -40 -230 40 95 vlineto
          endchar
        </CharString>
        <CharString name="uni031A">
          -601 680 55 hstem
          -135 55 vstem
          -80 531 rmoveto
          204 -300 -55 245 -149 vlineto
          endchar
        </CharString>
        <CharString name="uni031B">
          -601 454 20 hstem
          -36 345 rmoveto
          14 2 23 4 17 10 24 14 9 21 0 22 rrcurveto
          35 -25 21 -24 -27 -19 -22 -19 vhcurveto
          0 -32 35 -10 0 -9 0 -3 -8 -8 -19 -4 rrcurveto
          endchar
        </CharString>
        <CharString name="uni031C">
          -601 -360 37 vstem
          -232 -266 rmoveto
          -36 callsubr
          endchar
        </CharString>
        <CharString name="uni031D">
          -601 -240 40 hstem
          -250 40 vstem
          -115 -240 rmoveto
          -35 callsubr
          endchar
        </CharString>
        <CharString name="uni031E">
          -601 -93 40 hstem
          -250 40 vstem
          -115 -93 rmoveto
          -34 callsubr
          endchar
        </CharString>
        <CharString name="uni031F">
          -601 -168 44 hstem
          -249 38 vstem
          -134 -168 rmoveto
          44 -77 71 -38 -71 -77 -44 77 -82 38 82 vlineto
          endchar
        </CharString>
        <CharString name="uni0320">
          -601 -168 44 hstem
          -134 -168 rmoveto
          44 -192 -44 vlineto
          endchar
        </CharString>
        <CharString name="uni0321">
          -601 -287 19 hstem
          -54 55 vstem
          1 75 rmoveto
          -55 -252 hlineto
          -44 -12 -47 -44 vhcurveto
          -22 0 -18 15 -14 16 -14 16 -8 16 -21 0 rrcurveto
          -16 -12 -12 -15 -32 58 -23 70 61 47 62 77 hvcurveto
          endchar
        </CharString>
        <CharString name="uni0322">
          -601 -287 19 hstem
          -54 55 vstem
          1 75 rmoveto
          -55 -223 hlineto
          -77 47 -62 61 70 58 23 32 15 -12 12 -16 vhcurveto
          -21 0 -8 -16 -14 -16 -14 -16 -18 -15 -22 0 rrcurveto
          -44 -12 47 44 hvcurveto
          endchar
        </CharString>
        <CharString name="uni0323">
          -601 -217 99 hstem
          -280 99 vstem
          -181 -168 rmoveto
          -43 callsubr
          endchar
        </CharString>
        <CharString name="uni0324">
          -601 -218 99 hstem
          -379 99 100 99 vstem
          -81 -168 rmoveto
          -26 callsubr
          -199 hmoveto
          -26 callsubr
          endchar
        </CharString>
        <CharString name="uni0325">
          -601 -268 34 131 34 hstem
          -329 34 131 34 vstem
          -130 -168 rmoveto
          -32 callsubr
          -34 hmoveto
          -45 callsubr
          endchar
        </CharString>
        <CharString name="uni0326">
          -601 -199 39 vstem
          -272 -353 rmoveto
          -39 callsubr
          endchar
        </CharString>
        <CharString name="uni0327">
          -601 -215 35 180 20 hstem
          -200 75 vstem
          -212 hmoveto
          -53 callsubr
          endchar
        </CharString>
        <CharString name="uni0328">
          -601 -165 56 109 20 hstem
          -322 56 vstem
          -157 -73 rmoveto
          -33 callsubr
          endchar
        </CharString>
        <CharString name="uni0329">
          -601 -250 40 vstem
          -210 -234 rmoveto
          132 -40 -132 vlineto
          endchar
        </CharString>
        <CharString name="uni032A">
          -601 -153 55 hstem
          -385 55 202 55 vstem
          -73 -235 rmoveto
          137 -312 -137 55 82 202 -82 vlineto
          endchar
        </CharString>
        <CharString name="uni032B">
          -601 -227 40 hstem
          -380 40 90 40 95 40 vstem
          -75 -110 rmoveto
          -40 -35 hlineto
          -28 -15 -14 -34 -26 -20 14 28 vhcurveto
          35 -40 -36 vlineto
          -28 -11 -13 -32 -27 -20 13 28 vhcurveto
          36 -40 -35 vlineto
          -50 35 -32 54 vhcurveto
          32 0 21 16 8 18 7 -18 30 -16 31 0 rrcurveto
          54 33 32 50 hvcurveto
          endchar
        </CharString>
        <CharString name="uni032C">
          -601 -74 -73 rmoveto
          -42 callsubr
          endchar
        </CharString>
        <CharString name="uni032D">
          -601 -74 -240 rmoveto
          -52 callsubr
          endchar
        </CharString>
        <CharString name="uni032E">
          -601 -225 60 hstem
          -118 -68 rmoveto
          -44 callsubr
          endchar
        </CharString>
        <CharString name="uni032F">
          -601 -119 60 hstem
          -89 -216 rmoveto
          -27 callsubr
          endchar
        </CharString>
        <CharString name="uni0330">
          -601 -219 55 -9 55 hstemhm
          hintmask 10000000
          -94 -113 rmoveto
          -31 callsubr
          hintmask 01000000
          -50 callsubr
          hintmask 10000000
          -49 callsubr
          hintmask 01000000
          -30 callsubr
          hintmask 10000000
          -47 callsubr
          endchar
        </CharString>
        <CharString name="uni0330.size1">
          -41 -269 59 32 61 hstem
          535 -117 rmoveto
          21 callsubr
          endchar
        </CharString>
        <CharString name="uni0330.size2">
          378 -269 59 32 61 hstem
          953 -117 rmoveto
          24 callsubr
          endchar
        </CharString>
        <CharString name="uni0330.size3">
          859 -283 64 35 67 hstem
          1434 -117 rmoveto
          26 callsubr
          endchar
        </CharString>
        <CharString name="uni0330.size4">
          1285 -280 66 31 66 hstem
          1857 -117 rmoveto
          28 callsubr
          endchar
        </CharString>
        <CharString name="uni0330.size5">
          1727 -280 66 31 66 hstem
          2299 -117 rmoveto
          30 callsubr
          endchar
        </CharString>
        <CharString name="uni0331">
          -601 -195 54 hstem
          -74 -195 rmoveto
          -54 callsubr
          endchar
        </CharString>
        <CharString name="uni0332">
          -601 -191 50 hstem
          20 -191 rmoveto
          -57 callsubr
          endchar
        </CharString>
        <CharString name="uni0332.size1">
          399 -177 50 hstem
          1000 -177 rmoveto
          50 -1000 -50 vlineto
          endchar
        </CharString>
        <CharString name="uni0332.size2">
          899 -177 50 hstem
          1500 -177 rmoveto
          23 callsubr
          endchar
        </CharString>
        <CharString name="uni0332.size3">
          1399 -177 50 hstem
          2000 -177 rmoveto
          25 callsubr
          endchar
        </CharString>
        <CharString name="uni0332.size4">
          1899 -177 50 hstem
          2500 -177 rmoveto
          27 callsubr
          endchar
        </CharString>
        <CharString name="uni0332.size5">
          2399 -177 50 hstem
          3000 -177 rmoveto
          29 callsubr
          endchar
        </CharString>
        <CharString name="uni0333">
          -601 -300 50 59 50 hstem
          20 -191 rmoveto
          -57 callsubr
          500 -109 rmoveto
          -57 callsubr
          endchar
        </CharString>
        <CharString name="uni0334">
          -601 214 55 -9 55 hstemhm
          hintmask 10000000
          -100 320 rmoveto
          -31 callsubr
          hintmask 01000000
          -50 callsubr
          hintmask 10000000
          -49 callsubr
          hintmask 01000000
          -30 callsubr
          hintmask 10000000
          -47 callsubr
          endchar
        </CharString>
        <CharString name="uni0335">
          -601 230 44 hstem
          -78 230 rmoveto
          44 -306 -44 vlineto
          endchar
        </CharString>
        <CharString name="uni0336">
          -601 230 44 hstem
          20 230 rmoveto
          44 -500 -44 vlineto
          endchar
        </CharString>
        <CharString name="uni0337">
          -601 -41 580 rmoveto
          -54 0 -285 -654 54 0 rlineto
          endchar
        </CharString>
        <CharString name="uni0338">
          -601 642 20 hstem
          31 662 rmoveto
          -54 0 -357 -818 54 0 rlineto
          endchar
        </CharString>
        <CharString name="uni0338.size1">
          -601 -554 -181 rmoveto
          54 0 375 861 -54 0 rlineto
          endchar
        </CharString>
        <CharString name="uni0338.size2">
          -601 -103 729 rmoveto
          -54 0 -418 -958 54 0 rlineto
          endchar
        </CharString>
        <CharString name="uni0338.size3">
          -601 -82 778 rmoveto
          -54 0 -461 -1058 54 0 rlineto
          endchar
        </CharString>
        <CharString name="uni0338.size4">
          -601 -141 830 rmoveto
          -54 0 -323 -1157 54 0 rlineto
          endchar
        </CharString>
        <CharString name="uni0338.size5">
          -601 -554 -429 rmoveto
          54 0 369 1360 -54 0 rlineto
          endchar
        </CharString>
        <CharString name="uni0338.size6">
          -601 -210 1565 rmoveto
          -54 0 -497 -1846 54 0 rlineto
          endchar
        </CharString>
        <CharString name="uni0339">
          -601 -189 37 vstem
          -280 -71 rmoveto
          -37 callsubr
          endchar
        </CharString>
        <CharString name="uni033A">
          -601 -190 55 hstem
          -385 55 202 55 vstem
          -73 -190 rmoveto
          137 -55 -82 -202 82 -55 -137 vlineto
          endchar
        </CharString>
        <CharString name="uni033B">
          -601 -227 40 94 40 hstem
          -313 40 86 40 vstem
          -147 -227 rmoveto
          174 -166 -174 vlineto
          126 40 rmoveto
          -86 94 86 hlineto
          endchar
        </CharString>
        <CharString name="uni033C">
          -601 -120 55 hstem
          -79 -91 rmoveto
          -28 19 -13 7 -24 0 -29 0 -29 -13 -28 -40 -24 40 -29 13 -32 0 -19 0 -16 -6 -30 -20 rrcurveto
          -51 vlineto
          32 20 19 2 8 0 46 0 16 -32 20 -37 rrcurveto
          20 hlineto
          19 41 20 28 32 0 12 0 21 0 36 -22 rrcurveto
          endchar
        </CharString>
        <CharString name="uni033D">
          -601 -135 688 rmoveto
          -27 27 -68 -67 -67 67 -29 -27 68 -68 -64 -65 26 -28 66 65 67 -67 26 30 -65 65 rlineto
          endchar
        </CharString>
        <CharString name="uni033E">
          -601 202 55 -9 55 hintmask 01000000
          -177 829 rmoveto
          hintmask 10000000
          -65 -15 -36 -36 0 -50 0 -22 6 -24 12 -24 rrcurveto
          hintmask 01000000
          22 -43 6 -14 0 -20 0 -23 -14 -13 -37 -17 rrcurveto
          -29 vlineto
          76 21 30 29 0 55 0 25 -4 15 -20 41 rrcurveto
          hintmask 10000000
          -18 38 -4 8 0 18 rrcurveto
          hintmask 01000000
          0 23 15 17 31 11 rrcurveto
          endchar
        </CharString>
        <CharString name="uni033F">
          -601 770 50 58 50 hstem
          20 878 rmoveto
          -57 callsubr
          500 -108 rmoveto
          -57 callsubr
          endchar
        </CharString>
        <CharString name="uni0346">
          -601 627 54 hstem
          -350 55 173 54 vstem
          -68 538 rmoveto
          143 -282 -143 55 89 173 -89 vlineto
          endchar
        </CharString>
        <CharString name="uni0347">
          -600 -292 54 44 54 hstem
          323 -194 rmoveto
          54 -312 -54 vlineto
          312 -98 rmoveto
          54 -312 -54 vlineto
          endchar
        </CharString>
        <CharString name="uni034C">
          -601 532 56 -10 55 38 56 -10 55 hstemhm
          hintmask 00100000
          -85 777 rmoveto
          -51 callsubr
          hintmask 00010000
          -50 callsubr
          hintmask 00100000
          -49 callsubr
          hintmask 00010000
          -48 callsubr
          hintmask 10100000
          -47 callsubr
          -29 -139 rmoveto
          -51 callsubr
          hintmask 01000000
          -50 callsubr
          hintmask 10000000
          -49 callsubr
          hintmask 01000000
          -48 callsubr
          hintmask 10000000
          -47 callsubr
          endchar
        </CharString>
        <CharString name="uni034D">
          -123 -173 54 hstem
          478 -146 rmoveto
          -25 callsubr
          endchar
        </CharString>
        <CharString name="uni0359">
          -601 -87 -157 rmoveto
          -24 callsubr
          endchar
        </CharString>
        <CharString name="uni035C">
          -601 -233 60 hstem
          266 -76 rmoveto
          -18 -84 -218 -13 -69 0 -69 0 -218 13 -18 84 rrcurveto
          -29 hlineto
          -140 233 -17 101 101 233 17 140 vhcurveto
          endchar
        </CharString>
        <CharString name="uni0360">
          -601 517 55 6 55 hstem
          336 618 rmoveto
          -15 -50 -84 4 -40 0 -79 0 -106 21 -77 19 -51 12 -55 9 -52 0 -73 0 -84 -18 -15 -83 rrcurveto
          29 hlineto
          15 50 84 -4 40 0 51 0 54 -10 50 -12 85 -21 92 -18 88 0 73 0 84 18 15 83 rrcurveto
          endchar
        </CharString>
        <CharString name="uni0361">
          -601 604 60 hstem
          295 507 rmoveto
          140 -233 17 -101 -101 -233 -17 -140 vhcurveto
          29 hlineto
          18 84 218 13 69 0 69 0 218 -13 18 -84 rrcurveto
          endchar
        </CharString>
        <CharString name="uni0362">
          -601 -195 55 hstem
          355 -160 rmoveto
          -45 19 -36 40 -31 36 rrcurveto
          -20 -19 27 -33 rlineto
          4 -5 3 -3 0 -4 rrcurveto
          -5 -8 -6 -4 vhcurveto
          -640 -55 639 hlineto
          9 3 -5 -4 hvcurveto
          0 -4 -2 -5 -4 -5 rrcurveto
          -27 -33 19 -19 rlineto
          32 36 36 40 45 19 rrcurveto
          endchar
        </CharString>
        <CharString name="uni20EE">
          -165 -173 54 hstem
          436 -173 rmoveto
          -23 callsubr
          endchar
        </CharString>
        <CharString name="uni20EE.ex">
          -301 -173 54 hstem
          300 -173 rmoveto
          54 -300 -54 vlineto
          endchar
        </CharString>
        <CharString name="uni20EF">
          -165 -173 54 hstem
          436 -146 rmoveto
          -132 106 -18 -8 rlineto
          32 -27 17 -22 0 -7 rrcurveto
          -12 -16 -3 -33 vhcurveto
          -286 -54 286 hlineto
          28 21 -2 -13 hvcurveto
          0 -9 -21 -18 -29 -29 rrcurveto
          18 -8 rlineto
          endchar
        </CharString>
        <CharString name="uni239B">
          -151 50 124 vstem
          400 1005 rmoveto
          -261 -184 -89 -359 0 -303 rrcurveto
          -159 124 239 vlineto
          0 254 54 285 172 197 rrcurveto
          endchar
        </CharString>
        <CharString name="uni239C">
          -151 50 124 vstem
          174 hmoveto
          1010 -124 -1010 vlineto
          endchar
        </CharString>
        <CharString name="uni239D">
          -151 50 124 vstem
          400 30 rmoveto
          -172 197 -54 285 0 254 rrcurveto
          239 -124 -159 vlineto
          0 -303 89 -359 261 -184 rrcurveto
          endchar
        </CharString>
        <CharString name="uni239E">
          -151 276 124 vstem
          400 hmoveto
          159 vlineto
          0 303 -89 359 -261 184 rrcurveto
          -30 vlineto
          172 -197 54 -285 0 -254 rrcurveto
          -239 vlineto
          endchar
        </CharString>
        <CharString name="uni239F">
          -151 276 124 vstem
          400 hmoveto
          1010 -124 -1010 vlineto
          endchar
        </CharString>
        <CharString name="uni23A0">
          -151 276 124 vstem
          400 1005 rmoveto
          -124 -239 hlineto
          0 -254 -54 -285 -172 -197 rrcurveto
          -30 vlineto
          261 184 89 359 0 303 rrcurveto
          endchar
        </CharString>
        <CharString name="zero">
          -101 -14 26 638 26 hstem
          476 330 rmoveto
          205 -91 141 -131 -161 -69 -163 -177 -164 55 -186 171 163 63 172 172 vhcurveto
          -96 -5 rmoveto
          -198 -45 -115 -85 -86 -44 114 203 203 45 118 83 88 44 -117 -208 vhcurveto
          endchar
        </CharString>
</ttFont>
